<svg xmlns="http://www.w3.org/2000/svg" width="24.071" height="34" viewBox="0 0 24.071 34">
  <path id="_113398652816276583223772" data-name="113398652816276583223772" d="M23.971,12.105V10.913a12.954,12.954,0,0,1,4.752,1.334,1.135,1.135,0,0,0,1.618-1.022V3.135A1.135,1.135,0,0,0,29.205,2H16.466A1.135,1.135,0,0,0,15.33,3.135v8.09a1.135,1.135,0,0,0,.534.959,1.028,1.028,0,0,0,.806.153H16.7a2.551,2.551,0,0,0,.272-.091A12.7,12.7,0,0,1,21.7,10.913v1.192c-5.45.483-10.593,4.457-10.9,11.922.681,15.97,23.39,15.958,24.071,0C34.564,16.562,29.421,12.588,23.971,12.105Zm6.137,11.28-2.839,2.742L27.945,30A1.135,1.135,0,0,1,26.3,31.2l-3.463-1.828L19.361,31.2a1.14,1.14,0,0,1-1.652-1.221l.664-3.872-2.81-2.742a1.135,1.135,0,0,1,.63-1.936l3.883-.568,1.743-3.52a1.135,1.135,0,0,1,2.032,0l1.743,3.52,3.883.568a1.135,1.135,0,0,1,.63,1.959Z" transform="translate(-10.8 -2)" fill="#fffdfa"/>
</svg>
