<svg xmlns="http://www.w3.org/2000/svg" width="123.857" height="128.462" viewBox="0 0 123.857 128.462">
  <g id="design_1.1" data-name="design 1.1" transform="matrix(-0.895, -0.445, 0.445, -0.895, 95.817, 128.462)" opacity="0.1">
    <g id="design_1" data-name="design 1">
      <path id="Vector" d="M7.429,40.5H6.688a2.25,2.25,0,0,0,0,4.5h22.29a2.25,2.25,0,0,0,0-4.5h-.666L35.664,18,17.832,0,0,18Zm10.4-34.136L30.57,19.223,23.618,40.5H20.062V24.751a2.23,2.23,0,1,0-4.461,0V40.5H12.131L5.1,19.215Z" transform="translate(35.668 62.999)" fill="#0f0d0d"/>
      <path id="Vector-2" data-name="Vector" d="M102.089,13.5H107V0H93.625V13.5h3.961A45,45,0,0,1,85.024,38.57a44.407,44.407,0,0,1-14.172,9.646A43.777,43.777,0,0,1,60.188,51.25V49.5H46.813v1.75a43.777,43.777,0,0,1-10.665-3.034A44.4,44.4,0,0,1,21.976,38.57,45,45,0,0,1,9.415,13.5h3.96V0H0V13.5H4.911A49.424,49.424,0,0,0,38.848,54H12.993a6.749,6.749,0,1,0,0,4.5h33.82V63H60.188V58.5h33.82a6.751,6.751,0,1,0,0-4.5H68.152A49.429,49.429,0,0,0,102.089,13.5Zm.454-4.5H98.082V4.5h4.461ZM4.457,4.5H8.918V9H4.457Zm2.23,54a2.25,2.25,0,1,1,2.23-2.251A2.245,2.245,0,0,1,6.688,58.5Zm49.043,0H51.27V54H55.73ZM100.313,54a2.25,2.25,0,1,1-2.23,2.249A2.243,2.243,0,0,1,100.313,54Z" fill="#0f0d0d"/>
    </g>
  </g>
</svg>
