<svg xmlns="http://www.w3.org/2000/svg" width="108" height="108" viewBox="0 0 108 108">
  <g id="colors" transform="translate(0 108) rotate(-90)" opacity="0.1">
    <g id="colors-2" data-name="colors">
      <path id="Vector" d="M2.248,0A2.25,2.25,0,1,0,4.5,2.251,2.248,2.248,0,0,0,2.248,0Z" transform="translate(11.252 92.249)" fill="#0f0d0d"/>
      <path id="Vector-2" data-name="Vector" d="M105.752,81H81.574L103.9,71.755a2.252,2.252,0,0,0,1.216-2.94L96.5,48.028a2.247,2.247,0,0,0-2.076-1.391,2.224,2.224,0,0,0-.86.173L70.658,56.3,88.3,38.654a2.252,2.252,0,0,0,0-3.181L72.388,19.563a2.248,2.248,0,0,0-3.181,0L52.042,36.726l9.232-22.288A2.247,2.247,0,0,0,60.058,11.5L39.271,2.889a2.244,2.244,0,0,0-2.94,1.218L27,26.631V2.249A2.248,2.248,0,0,0,24.752,0H2.251A2.25,2.25,0,0,0,0,2.249v103.5A2.25,2.25,0,0,0,2.251,108h103.5A2.248,2.248,0,0,0,108,105.749v-22.5A2.248,2.248,0,0,0,105.752,81ZM93.2,51.828l6.888,16.629L29.083,97.872,62.342,64.613ZM70.8,24.337,83.525,37.064,29.544,91.046l18-43.455ZM39.627,7.907,56.258,14.8,27,85.426V38.391ZM22.5,4.5V81H4.5V4.5Zm-18,99v-18h18v18Zm99,0H27.254l43.457-18H103.5Z" fill="#0f0d0d"/>
    </g>
  </g>
</svg>
