<svg xmlns="http://www.w3.org/2000/svg" width="98.999" height="108" viewBox="0 0 98.999 108">
  <path id="cmyk" d="M108,36A36.008,36.008,0,0,0,54,4.817,36,36,0,1,0,18.259,67.33a36,36,0,0,0,71.482,0A35.985,35.985,0,0,0,108,36ZM23.2,69.656A36.07,36.07,0,0,0,54,67.182a36.07,36.07,0,0,0,30.8,2.474,31.506,31.506,0,0,1-61.594,0Zm62.263-5.171q-.6.282-1.206.542a31.614,31.614,0,0,1-24.518,0c-.517-.219-1.025-.452-1.529-.7a35.934,35.934,0,0,0,13.767-27.2A31.427,31.427,0,0,1,85.5,63C85.5,63.5,85.489,63.991,85.466,64.484Zm-18-29.97c.023.493.036.987.036,1.485A31.532,31.532,0,0,1,54,61.854,31.427,31.427,0,0,1,40.5,36c0-.5.013-.992.036-1.485.4-.188.8-.369,1.2-.542a31.622,31.622,0,0,1,24.521,0C66.666,34.146,67.068,34.327,67.464,34.515ZM54,27a35.907,35.907,0,0,0-12.795,2.343A31.57,31.57,0,0,1,54,10.145a31.653,31.653,0,0,1,11.028,13.6,31.034,31.034,0,0,1,1.767,5.6A35.906,35.906,0,0,0,54,27ZM36.021,37.13a35.933,35.933,0,0,0,13.767,27.2c-.5.244-1.012.476-1.529.7a31.614,31.614,0,0,1-24.518,0q-.608-.259-1.206-.542C22.511,63.991,22.5,63.5,22.5,63a31.544,31.544,0,0,1,13.52-25.87ZM49.788,7.668a35.942,35.942,0,0,0-13.526,24,35.994,35.994,0,0,0-18.243,30.2,31.509,31.509,0,0,1,30.24-54.9C48.776,7.192,49.284,7.424,49.788,7.668ZM101.026,23.74A31.557,31.557,0,0,1,89.981,61.869a35.994,35.994,0,0,0-18.243-30.2,35.942,35.942,0,0,0-13.526-24c.5-.244,1.012-.476,1.529-.7A31.542,31.542,0,0,1,101.026,23.74Z" transform="translate(0 108) rotate(-90)" fill="#0f0d0d" opacity="0.1"/>
</svg>
