<svg xmlns="http://www.w3.org/2000/svg" width="94.5" height="108" viewBox="0 0 94.5 108">
  <g id="color_book" data-name="color book" transform="translate(-2643 173) rotate(-90)" opacity="0.1">
    <path id="Vector" d="M105.749,9H54L9,0V9H2.251A2.252,2.252,0,0,0,0,11.251v81A2.25,2.25,0,0,0,2.251,94.5h103.5A2.25,2.25,0,0,0,108,92.251v-81A2.252,2.252,0,0,0,105.749,9ZM13.5,5.489l36,7.2V89.011l-36-7.2ZM4.5,90V13.5H9v72L31.5,90Zm99,0H54V13.5h49.5Z" transform="translate(65 2643)" fill="#0f0d0d"/>
    <path id="Vector-2" data-name="Vector" d="M13.5,0H0V13.5H13.5ZM9,9H4.5V4.5H9Z" transform="translate(128.001 2661)" fill="#0f0d0d"/>
    <path id="Vector-3" data-name="Vector" d="M13.5,0H0V13.5H13.5ZM9,9H4.5V4.5H9Z" transform="translate(146 2661)" fill="#0f0d0d"/>
    <path id="Vector-4" data-name="Vector" d="M13.5,0H0V13.5H13.5ZM9,9H4.5V4.5H9Z" transform="translate(128.001 2679)" fill="#0f0d0d"/>
    <path id="Vector-5" data-name="Vector" d="M13.5,0H0V13.5H13.5ZM9,9H4.5V4.5H9Z" transform="translate(146 2679)" fill="#0f0d0d"/>
    <path id="Vector-6" data-name="Vector" d="M13.5,0H0V13.5H13.5ZM9,9H4.5V4.5H9Z" transform="translate(128.001 2697)" fill="#0f0d0d"/>
    <path id="Vector-7" data-name="Vector" d="M13.5,0H0V13.5H13.5ZM9,9H4.5V4.5H9Z" transform="translate(146 2697)" fill="#0f0d0d"/>
    <path id="Vector-8" data-name="Vector" d="M13.5,13.5V0H0V13.5Zm-9-9H9V9H4.5Z" transform="translate(128.001 2715)" fill="#0f0d0d"/>
    <path id="Vector-9" data-name="Vector" d="M13.5,0H0V13.5H13.5ZM9,9H4.5V4.5H9Z" transform="translate(146 2715)" fill="#0f0d0d"/>
  </g>
</svg>
