<svg xmlns="http://www.w3.org/2000/svg" width="89.21" height="108" viewBox="0 0 89.21 108">
  <g id="stamp" transform="translate(-2633 510) rotate(-90)" opacity="0.1">
    <path id="Vector" d="M27,0A26.751,26.751,0,1,0,54,26.75,26.877,26.877,0,0,0,27,0ZM44.4,40.889a2.262,2.262,0,0,0-3.078.092,2.214,2.214,0,0,0-.1,3.047,22.183,22.183,0,0,1-3.592,2.382,2.258,2.258,0,0,0-2.881-1.079,2.222,2.222,0,0,0-1.266,2.776,22.8,22.8,0,0,1-4.239.829,2.249,2.249,0,0,0-4.486,0,22.774,22.774,0,0,1-4.242-.829,2.217,2.217,0,0,0-1.266-2.776,2.261,2.261,0,0,0-2.881,1.079,22.486,22.486,0,0,1-3.592-2.382,2.213,2.213,0,0,0-.1-3.047A2.266,2.266,0,0,0,9.6,40.889a22.375,22.375,0,0,1-2.416-3.558,2.218,2.218,0,0,0,1.107-2.859,2.256,2.256,0,0,0-2.831-1.246,22.28,22.28,0,0,1-.847-4.209,2.225,2.225,0,0,0-.007-4.448,21.826,21.826,0,0,1,.831-4.217,2.256,2.256,0,0,0,2.854-1.236,2.222,2.222,0,0,0-1.144-2.878,22,22,0,0,1,2.413-3.576,2.263,2.263,0,0,0,3.121-.056,2.21,2.21,0,0,0,.049-3.1,22.464,22.464,0,0,1,3.606-2.4A2.259,2.259,0,0,0,19.251,8.26,2.222,2.222,0,0,0,20.491,5.4a22.62,22.62,0,0,1,4.265-.834,2.248,2.248,0,0,0,4.492,0,22.623,22.623,0,0,1,4.265.834,2.221,2.221,0,0,0,1.236,2.856,2.255,2.255,0,0,0,2.913-1.149,22.473,22.473,0,0,1,3.606,2.4,2.213,2.213,0,0,0,.053,3.1,2.263,2.263,0,0,0,3.121.056,22.222,22.222,0,0,1,2.413,3.576,2.216,2.216,0,0,0-1.144,2.878,2.253,2.253,0,0,0,2.854,1.236A22.1,22.1,0,0,1,49.4,24.57a2.225,2.225,0,0,0-.01,4.448,22.016,22.016,0,0,1-.844,4.209,2.255,2.255,0,0,0-2.831,1.246,2.217,2.217,0,0,0,1.1,2.859A22.167,22.167,0,0,1,44.4,40.889Z" transform="translate(456 2633)" fill="#0f0d0d"/>
    <path id="Vector-2" data-name="Vector" d="M12.62,11.925,9,5.945,0,20.807H31.5L19.5,0ZM9,14.611l1.055,1.737H7.946Zm6.256,1.737L19.5,8.986l4.245,7.362Z" transform="translate(467.252 2647.905)" fill="#0f0d0d"/>
    <path id="Vector-3" data-name="Vector" d="M51.752,49.041H47.224V40.127c-9.3-9.678-8.19-17.5-6.239-21.782a10.536,10.536,0,0,0,1.767-5.783C42.751,5.625,35.7,0,27,0S11.252,5.625,11.252,12.562a10.51,10.51,0,0,0,1.767,5.783c1.951,4.286,3.059,12.1-6.242,21.782v8.914H2.251A2.242,2.242,0,0,0,0,51.271v8.918a2.241,2.241,0,0,0,2.251,2.227h49.5A2.238,2.238,0,0,0,54,60.189V51.271A2.239,2.239,0,0,0,51.752,49.041Zm-33.2-21.075a19.474,19.474,0,0,0-1.434-11.455l-.138-.3-.181-.281a6.093,6.093,0,0,1-1.048-3.365,7.021,7.021,0,0,1,2.933-5.409A13.516,13.516,0,0,1,27,4.459a13.508,13.508,0,0,1,8.316,2.694,7.024,7.024,0,0,1,2.937,5.409A6.093,6.093,0,0,1,37.2,15.927l-.181.281-.138.3a19.448,19.448,0,0,0-1.434,11.455,27.179,27.179,0,0,0,5.821,12.16H12.729A27.224,27.224,0,0,0,18.553,27.966ZM11.279,44.584H42.725v4.457H11.279ZM49.5,57.959H4.5V53.5h45Z" transform="translate(402 2659.794)" fill="#0f0d0d"/>
  </g>
</svg>
