<svg xmlns="http://www.w3.org/2000/svg" width="106.999" height="107" viewBox="0 0 106.999 107">
  <path id="sticker" d="M50.562,0A53.541,53.541,0,1,0,107,56.437ZM38.522,71.346H27.92L39.159,52.611l5.159,8.594Zm5.136,0L61.468,40.183,79.277,71.346Zm51.932-20.01A48.864,48.864,0,0,1,85.55,48.464a48.8,48.8,0,0,1-16.232-10.78A48.672,48.672,0,0,1,58.033,20.16a49.179,49.179,0,0,1-2.371-8.753Zm2.9,21.871A49.114,49.114,0,1,1,48.857,4.6l1.73,1.731A53.359,53.359,0,0,0,60.09,33.6L46.852,56.765,39.159,43.939,20.037,75.808H86.964l-19-33.256a53.323,53.323,0,0,0,32.706,13.858l1.734,1.734A48.8,48.8,0,0,1,98.491,73.208Z" transform="translate(0 107) rotate(-90)" fill="#0f0d0d" opacity="0.1"/>
</svg>
