<svg xmlns="http://www.w3.org/2000/svg" width="104.797" height="108.001" viewBox="0 0 104.797 108.001">
  <path id="pencil_brush" data-name="pencil brush" d="M100.88,84.118A16.93,16.93,0,0,0,80.32,67.594L69.107,56.38,99.535,25.95A13.5,13.5,0,1,0,80.448,6.864L50.018,37.293,15.361,2.635A9,9,0,0,0,2.635,15.361l34.66,34.657L4.51,82.8v19.087H23.6L56.381,69.105,67.5,80.219a16.9,16.9,0,0,0-.455,3.9c0,19.161,28.256,20.679,37.6,20.679S100.88,93.462,100.88,84.118ZM89.994,7.409A9,9,0,0,1,96.355,22.77L93.174,25.95,80.448,13.225l3.181-3.181A8.944,8.944,0,0,1,89.994,7.409ZM5.816,12.178A4.5,4.5,0,0,1,12.18,5.816L46.837,40.474l-6.361,6.363Zm3.2,85.209V93.662l3.725,3.726Zm12.722,0H19.1L9.013,87.3V84.664L77.268,16.407l4.786,4.786L20.433,82.813A2.25,2.25,0,0,0,23.614,86L85.234,24.373l4.759,4.758ZM59.562,65.925l6.361-6.363,9.786,9.784A17,17,0,0,0,69.3,75.665ZM83.774,97.38a22.57,22.57,0,0,1-8.965-5.1,11.077,11.077,0,0,1-3.266-8.157,12.419,12.419,0,0,1,24.838,0c0,5.122,2.729,10.117,4.924,14.13.326.6.722,1.322,1.084,2.02A66.641,66.641,0,0,1,83.774,97.38Z" transform="translate(0 108.001) rotate(-90)" fill="#0f0d0d" opacity="0.1"/>
</svg>
