<svg xmlns="http://www.w3.org/2000/svg" width="103.829" height="107.999" viewBox="0 0 103.829 107.999">
  <path id="brush" d="M105.364,2.612a9.051,9.051,0,0,0-12.722,0L27.68,66.97a17.149,17.149,0,0,0-3.639-.392A16.843,16.843,0,0,0,7.12,83.342c0,9.257-13.1,20.487-3.757,20.487s37.593-1.505,37.593-20.487a16.963,16.963,0,0,0-.448-3.866L105.364,15.22A8.858,8.858,0,0,0,105.364,2.612ZM33.191,91.421a22.628,22.628,0,0,1-8.965,5.058A67.151,67.151,0,0,1,5.611,99.339c.363-.692.758-1.407,1.088-2,2.188-3.974,4.924-8.924,4.924-14a12.442,12.442,0,0,1,21.2-8.7,12.167,12.167,0,0,1,3.639,8.7A10.907,10.907,0,0,1,33.191,91.421Zm68.99-79.352-63.486,62.9a16.892,16.892,0,0,0-6.407-6.26L95.82,5.763a4.525,4.525,0,0,1,6.361,0,4.429,4.429,0,0,1,0,6.305Z" transform="translate(0 107.999) rotate(-90)" fill="#0f0d0d" opacity="0.1"/>
</svg>
