<svg xmlns="http://www.w3.org/2000/svg" width="22.811" height="27.491" viewBox="0 0 22.811 27.491">
  <g id="Group_40606" data-name="Group 40606" transform="translate(-260.911 -172.754)">
    <g id="Group_40605" data-name="Group 40605" transform="translate(-216.103 -27.386)">
      <path id="Path_23470" data-name="Path 23470" d="M13461.014-2448.859a13.014,13.014,0,0,1,1.977,2.215,23.294,23.294,0,0,1,1.74,3.084s.718,1.809,1.438,4.067,1.444,4.964,1.444,4.964a26.5,26.5,0,0,0,2.14,5.516,40.376,40.376,0,0,0,3.557,5.162,12.133,12.133,0,0,0,2.315,2.483,11.607,11.607,0,0,1-.8-3.086,22.613,22.613,0,0,1,0-3.9,17.311,17.311,0,0,1,1.057-3.8,8.407,8.407,0,0,1,1.986-3.236,17.3,17.3,0,0,1,3.352-3.247,10.269,10.269,0,0,1,2.605-1.564,8,8,0,0,0-2.242.594c-1.7.605-4.564,1.827-4.564,1.827l-2.148.7a4.718,4.718,0,0,1-3.414-.278,7.771,7.771,0,0,1-2.949-2.789c-1.053-1.473-1.159-2.1-2.334-3.794a12.184,12.184,0,0,0-2.439-3.025A14.928,14.928,0,0,0,13461.014-2448.859Z" transform="translate(-12984 2649)" fill="#c1bbbb"/>
      <path id="Path_23471" data-name="Path 23471" d="M13523.475-2427.506s-.23,1.538-.256,2.53a4.6,4.6,0,0,0,.546,2.346c.237.3,1.027,1.343,2.022,1.376s1.42-.262,2.254-1.263a5.547,5.547,0,0,0,1.029-2.458l.227-1.585,1.525.178,1.057.159-4.895-4.09-5.953,2.434Z" transform="translate(-13036.569 2632.756)" fill="#c1bbbb"/>
      <path id="Path_23473" data-name="Path 23473" d="M13597.725-2398.339l-.355,2.711.271.045.366-2.717" transform="translate(-13103.435 2604.712)" fill="#c1bbbb"/>
    </g>
  </g>
</svg>
