<svg xmlns="http://www.w3.org/2000/svg" width="22.329" height="18.603" viewBox="0 0 22.329 18.603">
  <path id="Icon_ionic-ios-share-alt" data-name="Icon ionic-ios-share-alt" d="M26.633,14.563l-8.2-7.674a.419.419,0,0,0-.326-.14c-.256.012-.581.192-.581.465v3.849a.248.248,0,0,1-.209.238C9.157,12.552,5.721,18.656,4.506,24.993c-.047.25.291.483.448.285,2.977-3.75,6.6-6.2,12.325-6.244a.288.288,0,0,1,.244.279v3.779a.5.5,0,0,0,.843.308l8.261-7.808a.642.642,0,0,0,.2-.488A.779.779,0,0,0,26.633,14.563Z" transform="translate(-4.502 -6.749)" fill="#c1bbbb"/>
</svg>
