<svg xmlns="http://www.w3.org/2000/svg" width="28.237" height="19.766" viewBox="0 0 28.237 19.766">
  <path id="Icon_awesome-users" data-name="Icon awesome-users" d="M4.236,10.721A2.824,2.824,0,1,0,1.412,7.9,2.826,2.826,0,0,0,4.236,10.721Zm19.766,0A2.824,2.824,0,1,0,21.178,7.9,2.826,2.826,0,0,0,24,10.721Zm1.412,1.412H22.59a2.815,2.815,0,0,0-1.99.821,6.454,6.454,0,0,1,3.313,4.827h2.912a1.41,1.41,0,0,0,1.412-1.412V14.957A2.826,2.826,0,0,0,25.414,12.133Zm-11.295,0A4.942,4.942,0,1,0,9.177,7.192,4.939,4.939,0,0,0,14.119,12.133Zm3.388,1.412h-.366a6.823,6.823,0,0,1-6.045,0H10.73a5.084,5.084,0,0,0-5.083,5.083V19.9a2.118,2.118,0,0,0,2.118,2.118H20.472A2.118,2.118,0,0,0,22.59,19.9V18.628A5.084,5.084,0,0,0,17.507,13.545Zm-9.87-.591a2.815,2.815,0,0,0-1.99-.821H2.824A2.826,2.826,0,0,0,0,14.957v1.412a1.41,1.41,0,0,0,1.412,1.412H4.319A6.47,6.47,0,0,1,7.637,12.954Z" transform="translate(0 -2.25)" fill="#c1bbbb"/>
</svg>
