<svg id="linkedin_1_" data-name="linkedin (1)" xmlns="http://www.w3.org/2000/svg" width="21.57" height="21.57" viewBox="0 0 21.57 21.57">
  <path id="Path_7493" data-name="Path 7493" d="M22.424,22.337h.005V14.425c0-3.87-.833-6.851-5.358-6.851A4.7,4.7,0,0,0,12.842,9.9h-.063V7.935H8.489v14.4h4.467V15.205c0-1.878.356-3.693,2.681-3.693,2.291,0,2.325,2.143,2.325,3.813v7.011Z" transform="translate(-0.859 -0.767)" fill="#fff"/>
  <path id="Path_7494" data-name="Path 7494" d="M.4,7.977H4.868v14.4H.4Z" transform="translate(-0.04 -0.808)" fill="#fff"/>
  <path id="Path_7495" data-name="Path 7495" d="M2.59,0A2.6,2.6,0,1,0,5.18,2.59,2.591,2.591,0,0,0,2.59,0Z" fill="#fff"/>
</svg>
