<svg xmlns="http://www.w3.org/2000/svg" width="126.165" height="55" viewBox="0 0 126.165 55">
  <g id="Group_38527" data-name="Group 38527" transform="translate(-100.835 -21)">
    <g id="Group_38499" data-name="Group 38499">
      <text id="Get_Access_to_Unlimited_Educational_Resources._Everywhere_Everytime_" data-name="Get Access to Unlimited Educational Resources. Everywhere, Everytime!" transform="translate(146 71)" fill="#fff" font-size="17" font-family="SegoeUI, Segoe UI" letter-spacing="0.1em" opacity="0.8"><tspan x="0" y="0">Training</tspan></text>
      <text id="Get_Access_to_Unlimited_Educational_Resources._Everywhere_Everytime_2" data-name="Get Access to Unlimited Educational Resources. Everywhere, Everytime!" transform="translate(146 47)" fill="#fff" font-size="24" font-family="SegoeUI-Bold, Segoe UI" font-weight="700"><tspan x="0" y="0">Kosova</tspan></text>
    </g>
    <g id="Group_38525" data-name="Group 38525" transform="translate(-376.179 -174.256)">
      <path id="Path_23470" data-name="Path 23470" d="M13461.014-2448.859a21.924,21.924,0,0,1,3.329,3.728,39.192,39.192,0,0,1,2.928,5.192s1.209,3.045,2.422,6.846,2.431,8.357,2.431,8.357a44.633,44.633,0,0,0,3.6,9.287,68.18,68.18,0,0,0,5.989,8.689,20.365,20.365,0,0,0,3.9,4.181,19.5,19.5,0,0,1-1.346-5.2,38,38,0,0,1,0-6.563,29.1,29.1,0,0,1,1.778-6.4,14.137,14.137,0,0,1,3.344-5.448,29.155,29.155,0,0,1,5.642-5.466,17.277,17.277,0,0,1,4.388-2.633,13.447,13.447,0,0,0-3.775,1c-2.864,1.019-7.685,3.075-7.685,3.075l-3.617,1.184a7.946,7.946,0,0,1-5.748-.468,13.091,13.091,0,0,1-4.965-4.695c-1.771-2.48-1.95-3.541-3.928-6.388s-2-3.191-4.107-5.093A25.113,25.113,0,0,0,13461.014-2448.859Z" transform="translate(-12984 2649)" fill="#fff"/>
      <path id="Path_23471" data-name="Path 23471" d="M13525.145-2425.587s-.389,2.589-.431,4.259a7.729,7.729,0,0,0,.919,3.949c.4.509,1.729,2.26,3.4,2.316s2.392-.441,3.794-2.127a9.341,9.341,0,0,0,1.734-4.139l.38-2.668,2.568.3,1.779.268-8.239-6.885-10.021,4.1Z" transform="translate(-13031.479 2634.329)" fill="#fff"/>
      <path id="Path_23473" data-name="Path 23473" d="M13597.967-2398.339l-.6,4.564.457.076.615-4.574" transform="translate(-13091.871 2608.972)" fill="#fff"/>
    </g>
  </g>
</svg>
