<svg xmlns="http://www.w3.org/2000/svg" width="55.45" height="68" viewBox="0 0 55.45 68">
  <g id="Group_40606" data-name="Group 40606" transform="translate(-1168.775 -4184)">
    <g id="Group">
      <g id="Group-2" data-name="Group">
        <path id="Vector" d="M55.206,59.074,48.177,49.9a10.188,10.188,0,0,0,5.561-4.178c1.655-2.9.907-6.448.183-9.872a27.338,27.338,0,0,1-.782-5.37,27.329,27.329,0,0,1,.782-5.374c.72-3.426,1.473-6.968-.183-9.867-1.714-3.006-5.166-4.119-8.5-5.193a24.523,24.523,0,0,1-4.8-1.909,23.538,23.538,0,0,1-3.848-3.166C34.107,2.641,31.3,0,27.725,0s-6.382,2.641-8.86,4.973A23.544,23.544,0,0,1,15.018,8.14a24.516,24.516,0,0,1-4.8,1.9c-3.338,1.074-6.79,2.187-8.5,5.193-1.655,2.9-.907,6.448-.183,9.872a27.329,27.329,0,0,1,.781,5.374,27.329,27.329,0,0,1-.782,5.374c-.72,3.426-1.473,6.968.183,9.867A10.188,10.188,0,0,0,7.278,49.9L.243,59.073a1.184,1.184,0,0,0,.2,1.645,1.143,1.143,0,0,0,.853.238l8.259-1.047L11.6,67.15a1.15,1.15,0,0,0,1.11.85,1.149,1.149,0,0,0,.913-.453L21,57.917a10.61,10.61,0,0,0,6.728,3.048,10.61,10.61,0,0,0,6.728-3.048l7.377,9.627a1.149,1.149,0,0,0,.913.456,1.15,1.15,0,0,0,1.11-.85l2.039-7.24,8.259,1.047a1.159,1.159,0,0,0,1.29-1.017A1.185,1.185,0,0,0,55.206,59.074Zm-42.014,5.21L11.507,58.3a1.155,1.155,0,0,0-1.253-.841l-6.469.821,5.8-7.564.639.208a24.515,24.515,0,0,1,4.8,1.9,23.538,23.538,0,0,1,3.848,3.166l.4.373Zm14.532-5.664c-2.668,0-4.913-2.11-7.29-4.347a25.535,25.535,0,0,0-4.261-3.479,26.553,26.553,0,0,0-5.26-2.11c-3.053-.984-5.938-1.912-7.2-4.133-1.208-2.121-.585-5.077.077-8.207a29.111,29.111,0,0,0,.834-5.862,29.1,29.1,0,0,0-.833-5.862c-.662-3.129-1.286-6.085-.077-8.207,1.271-2.221,4.151-3.149,7.2-4.133a26.561,26.561,0,0,0,5.258-2.11,25.534,25.534,0,0,0,4.26-3.479c2.379-2.237,4.623-4.347,7.291-4.347s4.913,2.11,7.29,4.347a25.535,25.535,0,0,0,4.261,3.479,26.553,26.553,0,0,0,5.26,2.11c3.053.984,5.938,1.912,7.2,4.133,1.208,2.121.585,5.077-.077,8.207a29.111,29.111,0,0,0-.834,5.862,29.1,29.1,0,0,0,.833,5.862c.662,3.129,1.286,6.085.077,8.207-1.271,2.221-4.151,3.149-7.2,4.133a26.561,26.561,0,0,0-5.258,2.11,25.534,25.534,0,0,0-4.26,3.479C32.638,56.51,30.393,58.621,27.725,58.621ZM45.2,57.458a1.155,1.155,0,0,0-1.253.841l-1.691,5.986-6.069-7.92.4-.373a23.544,23.544,0,0,1,3.847-3.167,24.516,24.516,0,0,1,4.8-1.9l.639-.208,5.8,7.564Z" transform="translate(1168.775 4184)" fill="#eba62d"/>
      </g>
    </g>
    <g id="Group-3" data-name="Group">
      <g id="Group-4" data-name="Group">
        <path id="Vector-2" data-name="Vector" d="M20.793,0A20.95,20.95,0,0,0,0,21.1a20.95,20.95,0,0,0,20.793,21.1A20.95,20.95,0,0,0,41.586,21.1,20.974,20.974,0,0,0,20.793,0Zm0,39.862A18.622,18.622,0,0,1,2.31,21.1,18.622,18.622,0,0,1,20.793,2.345,18.622,18.622,0,0,1,39.276,21.1,18.644,18.644,0,0,1,20.793,39.862Z" transform="translate(1175.707 4193.379)" fill="#eba62d"/>
      </g>
    </g>
    <g id="Group-5" data-name="Group">
      <g id="Group-6" data-name="Group">
        <path id="Vector-3" data-name="Vector" d="M27.1,9.41a2.3,2.3,0,0,0-1.867-.965H18.163L15.968,1.613a2.3,2.3,0,0,0-2.916-1.5,2.328,2.328,0,0,0-1.473,1.5L9.389,8.445H2.312A2.328,2.328,0,0,0,0,10.789a2.356,2.356,0,0,0,.951,1.9l5.725,4.221L4.489,23.738a2.352,2.352,0,0,0,1.483,2.955,2.283,2.283,0,0,0,2.073-.333l5.729-4.22L19.5,26.361a2.251,2.251,0,0,0,2.717,0,2.33,2.33,0,0,0,.839-2.622l-2.187-6.833,5.725-4.221A2.367,2.367,0,0,0,27.1,9.41Zm-8.271,6.1a1.182,1.182,0,0,0-.419,1.312l2.447,7.642-6.405-4.722a1.141,1.141,0,0,0-1.357,0L6.69,24.465l2.446-7.642a1.182,1.182,0,0,0-.419-1.311l-6.4-4.722h7.916a1.157,1.157,0,0,0,1.1-.81l2.447-7.642L16.22,9.978a1.157,1.157,0,0,0,1.1.81h7.916Z" transform="translate(1182.727 4200.176)" fill="#eba62d"/>
      </g>
    </g>
  </g>
</svg>
