<svg xmlns="http://www.w3.org/2000/svg" width="74" height="76" viewBox="0 0 74 76">
  <g id="Group" transform="translate(-260 -4180)">
    <g id="Group-2" data-name="Group">
      <g id="Group-3" data-name="Group">
        <path id="Vector" d="M1.074,6.323l28.367,3.8a1.332,1.332,0,0,0,.159.01,1.363,1.363,0,0,0,.159-.01L56.734,6.509v4.4c-.773.893-2.467,3.121-2.467,5.559a3.7,3.7,0,1,0,7.4,0c0-2.438-1.693-4.666-2.467-5.559V5.066a1.283,1.283,0,0,0-.093-.472,1.243,1.243,0,0,0-.084-.141,1.256,1.256,0,0,0-.163-.25,1.069,1.069,0,0,0-.144-.117,1.157,1.157,0,0,0-.221-.155,1.076,1.076,0,0,0-.19-.062,1.084,1.084,0,0,0-.18-.061L29.759.009a1.343,1.343,0,0,0-.318,0L1.074,3.809a1.272,1.272,0,0,0,0,2.513ZM59.2,16.466a1.234,1.234,0,1,1-2.467,0,5.97,5.97,0,0,1,1.233-3.089A5.971,5.971,0,0,1,59.2,16.466ZM29.6,2.543,48.432,5.066,29.6,7.589,10.768,5.066Z" transform="translate(267.4 4180)" fill="#4b3c99"/>
        <path id="Vector-2" data-name="Vector" d="M24.667,10.134a4.97,4.97,0,0,0,4.866-4.383l4.508-3.471A1.288,1.288,0,0,0,34.287.508,1.21,1.21,0,0,0,32.561.254L29.417,2.676A3.706,3.706,0,0,0,25.9,0H20.967a3.756,3.756,0,0,0-3.7,3.8,3.756,3.756,0,0,0-3.7-3.8H8.634A3.706,3.706,0,0,0,5.118,2.676L1.974.254A1.213,1.213,0,0,0,.247.508,1.288,1.288,0,0,0,.494,2.281L5,5.752a4.969,4.969,0,0,0,4.866,4.383h2.467a5.006,5.006,0,0,0,4.933-5.067A5.006,5.006,0,0,0,22.2,10.134ZM14.8,5.068A2.5,2.5,0,0,1,12.334,7.6H9.867A2.5,2.5,0,0,1,7.4,5.068V3.8A1.252,1.252,0,0,1,8.634,2.534h4.933A1.252,1.252,0,0,1,14.8,3.8V5.068Zm4.933,0V3.8a1.252,1.252,0,0,1,1.233-1.267H25.9A1.252,1.252,0,0,1,27.134,3.8V5.068A2.5,2.5,0,0,1,24.667,7.6H22.2A2.5,2.5,0,0,1,19.734,5.068Z" transform="translate(279.732 4207.865)" fill="#4b3c99"/>
        <path id="Vector-3" data-name="Vector" d="M39.4,3.49a1.357,1.357,0,0,0-.1-.255c-.023-.044-.028-.1-.056-.138-.014-.019-.033-.029-.047-.048a1.219,1.219,0,0,0-.183-.185,1.043,1.043,0,0,0-.187-.151.7.7,0,0,0-.057-.047L33.835.134A1.2,1.2,0,0,0,32.6.213L25.2,5.28a1.276,1.276,0,0,0-.549,1.054v4.492a7.994,7.994,0,0,1-4.933,1.842,8.088,8.088,0,0,1-4.933-1.846V6.333a1.276,1.276,0,0,0-.549-1.054L6.834.213A1.2,1.2,0,0,0,5.6.134L.665,2.666C.643,2.678.63,2.7.611,2.711a1.1,1.1,0,0,0-.2.16,1.2,1.2,0,0,0-.171.175C.226,3.065.2,3.077.19,3.1a1.222,1.222,0,0,0-.058.146,1.322,1.322,0,0,0-.1.243A1.276,1.276,0,0,0,0,3.723a1.273,1.273,0,0,0,0,.238,1.2,1.2,0,0,0,.067.253,1.237,1.237,0,0,0,.039.152c.011.023.032.037.044.058a1.175,1.175,0,0,0,.153.2A1.355,1.355,0,0,0,.481,4.8c.02.015.031.038.051.052l7.4,5.067a1.2,1.2,0,0,0,.683.213A1.222,1.222,0,0,0,9.642,9.57,1.287,1.287,0,0,0,9.3,7.813L3.668,3.957,6.061,2.729l6.256,4.283V11.4a1.281,1.281,0,0,0,.361.9,10.541,10.541,0,0,0,7.039,2.9,10.541,10.541,0,0,0,7.039-2.9,1.286,1.286,0,0,0,.361-.9V7.011l6.257-4.283,2.391,1.227L30.132,7.813A1.287,1.287,0,0,0,29.79,9.57a1.222,1.222,0,0,0,1.027.564,1.2,1.2,0,0,0,.683-.213l7.4-5.067c.02-.014.03-.035.048-.049a1.274,1.274,0,0,0,.181-.186,1.335,1.335,0,0,0,.144-.191c.012-.023.035-.037.046-.061a1.08,1.08,0,0,0,.043-.161,1.244,1.244,0,0,0,.063-.239,1.235,1.235,0,0,0,0-.252A1.179,1.179,0,0,0,39.4,3.49Z" transform="translate(277.284 4240.8)" fill="#4b3c99"/>
        <path id="Vector-4" data-name="Vector" d="M51.888,37.205a1.236,1.236,0,0,0,1.146.8,1.194,1.194,0,0,0,.458-.091,1.278,1.278,0,0,0,.688-1.645,39.091,39.091,0,0,1-2.379-12.2V13.934C51.8,3.142,46.414.252,46.185.135a1.2,1.2,0,0,0-1.2.054A1.276,1.276,0,0,0,44.4,1.267V6.334c0,4.791-3.569,14.631-4.8,17.167-1.106,2.274-6.96,9.433-12.463,9.433S15.777,25.775,14.67,23.5c-1.233-2.536-4.8-12.377-4.8-17.167V1.267A1.276,1.276,0,0,0,9.281.189a1.2,1.2,0,0,0-1.2-.054c-.229.118-5.615,3.007-5.615,13.8V24.067a39.09,39.09,0,0,1-2.379,12.2,1.278,1.278,0,0,0,.688,1.645,1.225,1.225,0,0,0,1.6-.7A41.136,41.136,0,0,0,4.934,24.067V13.934c0-5.136,1.3-8.121,2.467-9.762V6.333c0,5.437,3.884,15.878,5.063,18.3,1.5,3.083,8.07,10.834,14.671,10.834S40.3,27.716,41.8,24.633c1.18-2.422,5.064-12.863,5.064-18.3V4.174c1.166,1.643,2.467,4.626,2.467,9.76V24.067A41.129,41.129,0,0,0,51.888,37.205Z" transform="translate(269.867 4202.799)" fill="#4b3c99"/>
        <path id="Vector-5" data-name="Vector" d="M7.777.358a4.212,4.212,0,0,1-2.843.909A4.215,4.215,0,0,1,2.093.359,1.209,1.209,0,0,0,.362.372a1.289,1.289,0,0,0,0,1.791A6.46,6.46,0,0,0,4.934,3.8,6.459,6.459,0,0,0,9.506,2.163,1.282,1.282,0,0,0,9.513.394,1.218,1.218,0,0,0,7.777.358Z" transform="translate(292.066 4225.599)" fill="#4b3c99"/>
        <path id="Vector-6" data-name="Vector" d="M14.736,11c-.109-.337-2.8-8.29-13.2-10.962A1.229,1.229,0,0,0,.037.96,1.27,1.27,0,0,0,.935,2.5C9.972,4.817,12.3,11.523,12.4,11.8a1.235,1.235,0,0,0,1.169.866,1.206,1.206,0,0,0,.39-.065A1.274,1.274,0,0,0,14.736,11Z" transform="translate(319.2 4243.332)" fill="#4b3c99"/>
        <path id="Vector-7" data-name="Vector" d="M39.467,10.133V1.267a1.234,1.234,0,1,0-2.467,0V9.314a44.72,44.72,0,0,1-17.267,3.353A44.72,44.72,0,0,1,2.467,9.314V1.267A1.25,1.25,0,0,0,1.233,0,1.25,1.25,0,0,0,0,1.267v8.867a1.272,1.272,0,0,0,.682,1.134A44.811,44.811,0,0,0,19.733,15.2a44.811,44.811,0,0,0,19.051-3.933A1.272,1.272,0,0,0,39.467,10.133Z" transform="translate(277.267 4188.866)" fill="#4b3c99"/>
        <path id="Vector-8" data-name="Vector" d="M13.268.039C2.864,2.71.172,10.664.064,11a1.274,1.274,0,0,0,.779,1.6,1.2,1.2,0,0,0,.39.065A1.235,1.235,0,0,0,2.4,11.8c.023-.07,2.358-6.968,11.463-9.305a1.27,1.27,0,0,0,.9-1.536A1.23,1.23,0,0,0,13.268.039Z" transform="translate(260 4243.332)" fill="#4b3c99"/>
      </g>
    </g>
  </g>
</svg>
