<svg xmlns="http://www.w3.org/2000/svg" width="72.656" height="73.625" viewBox="0 0 72.656 73.625">
  <g id="Group_40606" data-name="Group 40606" transform="translate(-727.172 -4529.375)">
    <path id="Vector" d="M0,0H2.344V2.375H0Z" transform="translate(747.094 4591.125)" fill="#fff"/>
    <path id="Vector-2" data-name="Vector" d="M7.031,0A7.086,7.086,0,0,0,0,7.125,7.086,7.086,0,0,0,7.031,14.25a7.086,7.086,0,0,0,7.031-7.125A7.086,7.086,0,0,0,7.031,0Zm0,11.875a4.75,4.75,0,0,1,0-9.5,4.75,4.75,0,0,1,0,9.5Z" transform="translate(776.391 4567.375)" fill="#fff"/>
    <path id="Vector-3" data-name="Vector" d="M72.656,0H9.375V23.75a2.362,2.362,0,0,0-2.344,2.375H5.859a3.544,3.544,0,0,0-3.516,3.563v6.335C.741,37.159,0,40.427,0,41.563a3.544,3.544,0,0,0,3.516,3.563,3.544,3.544,0,0,0,3.516-3.562c0-1.135-.741-4.4-2.344-5.54V29.688A1.182,1.182,0,0,1,5.859,28.5H7.031a2.362,2.362,0,0,0,2.344,2.375v4.366l.736.3c.055.023.405.161.952.359a10.735,10.735,0,0,0,4.5,12.373A21.349,21.349,0,0,0,0,68.875v4.75H42.188v-4.75a21.349,21.349,0,0,0-15.564-20.6,10.58,10.58,0,0,0,1.084-.771H44.767a11.894,11.894,0,0,0,5.657,7.914l-1.392,14.1,7.219-2.925,7.218,2.925-1.392-14.1A11.9,11.9,0,0,0,67.732,47.5h4.924ZM3.516,42.75a1.182,1.182,0,0,1-1.172-1.187A7.426,7.426,0,0,1,3.516,38.1a7.422,7.422,0,0,1,1.172,3.463A1.182,1.182,0,0,1,3.516,42.75ZM9.374,26.125H32.813V28.5H9.375Zm21.095,4.75v2.738a31.271,31.271,0,0,1-9.375,2.012,31.271,31.271,0,0,1-9.375-2.012V30.875ZM21.094,56.6l3.716,5.021,3.315-6.719V71.25H14.063V54.906l3.315,6.719ZM32.813,71.25H30.469v-18.8a18.863,18.863,0,0,1,2.344,1.621ZM27.164,50.916c.088.031.173.065.261.1L24.41,57.126,22.691,54.8ZM9.375,54.067a18.863,18.863,0,0,1,2.344-1.621v18.8H9.375Zm8.4,3.058-3.015-6.112c.087-.032.173-.067.261-.1L19.5,54.8ZM2.344,68.875A19.044,19.044,0,0,1,7.031,56.35v14.9H2.344Zm37.5,0V71.25H35.156V56.35A19.044,19.044,0,0,1,39.844,68.875ZM24.4,50.19l-3.306,2.871L17.788,50.19a17.522,17.522,0,0,1,6.612,0ZM21.094,47.5a8.267,8.267,0,0,1-8.2-8.312,8.381,8.381,0,0,1,.4-2.553A28.72,28.72,0,0,0,21.094,38a28.766,28.766,0,0,0,7.8-1.364,8.368,8.368,0,0,1,.4,2.552A8.267,8.267,0,0,1,21.094,47.5ZM60.751,65.858l-4.5-1.824-4.5,1.825.93-9.426a11.515,11.515,0,0,0,7.141,0Zm-4.5-11.233a9.5,9.5,0,1,1,9.375-9.5A9.449,9.449,0,0,1,56.25,54.625Zm14.063-9.5H67.969a11.72,11.72,0,1,0-23.437,0H29.857A10.764,10.764,0,0,0,31.125,35.9c.546-.2.9-.336.952-.359l.736-.3V30.875A2.362,2.362,0,0,0,35.156,28.5V26.125a2.362,2.362,0,0,0-2.344-2.375H11.719V2.375H70.313Z" transform="translate(727.172 4529.375)" fill="#e9515b"/>
    <path id="Vector-4" data-name="Vector" d="M53.906,0H0V11.875H53.906ZM51.563,9.5H2.344V2.375H51.563Z" transform="translate(741.234 4534.125)" fill="#e9515b"/>
    <path id="Vector-5" data-name="Vector" d="M0,0H2.344V2.375H0Z" transform="translate(741.234 4548.375)" fill="#e9515b"/>
    <path id="Vector-6" data-name="Vector" d="M0,0H49.219V2.375H0Z" transform="translate(745.922 4548.375)" fill="#e9515b"/>
    <path id="Vector-7" data-name="Vector" d="M0,0H25.781V2.375H0Z" transform="translate(764.672 4553.125)" fill="#e9515b"/>
    <path id="Vector-8" data-name="Vector" d="M0,0H30.469V2.375H0Z" transform="translate(764.672 4557.875)" fill="#e9515b"/>
    <path id="Vector-9" data-name="Vector" d="M0,0H2.344V2.375H0Z" transform="translate(764.672 4562.625)" fill="#e9515b"/>
    <path id="Vector-10" data-name="Vector" d="M0,0H2.344V2.375H0Z" transform="translate(769.359 4562.625)" fill="#e9515b"/>
  </g>
</svg>
