<svg id="Icon_ionic-ios-quote" data-name="Icon ionic-ios-quote" xmlns="http://www.w3.org/2000/svg" width="22.5" height="22.507" viewBox="0 0 22.5 22.507">
  <path id="Path_23442" data-name="Path 23442" d="M8.93,29.257H13.5a3.385,3.385,0,0,0,3.375-3.375v-9A3.385,3.385,0,0,0,13.5,13.507H10.779a.566.566,0,0,1-.562-.6,8.576,8.576,0,0,1,2.2-5.21A.563.563,0,0,0,12,6.75H9.2a.546.546,0,0,0-.443.218,10.875,10.875,0,0,0-2,6.6v13.5a2.131,2.131,0,0,0,2.18,2.187Z" transform="translate(5.625 -6.75)" fill="#4e4382"/>
  <path id="Path_23443" data-name="Path 23443" d="M21.3,29.257h4.57a3.385,3.385,0,0,0,3.375-3.375v-9a3.385,3.385,0,0,0-3.375-3.375H23.154a.566.566,0,0,1-.562-.6,8.576,8.576,0,0,1,2.2-5.21.563.563,0,0,0-.415-.942H21.572a.546.546,0,0,0-.443.218,10.875,10.875,0,0,0-2,6.6v13.5a2.131,2.131,0,0,0,2.18,2.187Z" transform="translate(-19.125 -6.75)" fill="#4e4382"/>
</svg>
