<svg xmlns="http://www.w3.org/2000/svg" width="34.962" height="35" viewBox="0 0 34.962 35">
  <path id="Path_23441" data-name="Path 23441" d="M678.087,268.663a7.836,7.836,0,0,0-.015-2.976l2.672-6.447a.044.044,0,0,0,0-.013,10.949,10.949,0,0,1,1.876-3.256.873.873,0,0,0,.215-.8l-1.1-4.731a.593.593,0,0,0-.058-.141c0-.008-.007-.019-.011-.027s-.025-.028-.037-.043a.754.754,0,0,0-.236-.189.58.58,0,0,0-.137-.034.39.39,0,0,1-.038-.01.587.587,0,0,0-.322.071c-.008,0-.019.006-.027.012h-.006l-4.119,2.57a.871.871,0,0,0-.412.718,10.951,10.951,0,0,1-.981,3.636v.006l-1.336,3.228a7.832,7.832,0,0,0-2.083-.753,31.572,31.572,0,0,0,.3-5.736,6.367,6.367,0,0,0,1.448-4.673c-.365-3.4-3.437-5.855-3.569-5.958a.584.584,0,0,0-.925.608c.3,1.128.041,2.319-2.178,4.767a3.414,3.414,0,0,0-.8,3.72,4.515,4.515,0,0,0,.83,1.341c-.141.9-.252,1.755-.328,2.586a29.144,29.144,0,0,0-.1,4.137,7.949,7.949,0,0,0-1.453,1.012l-2.829-12.1c0-.013-.011-.021-.015-.032a.528.528,0,0,0-.041-.113l-2.89-5.337a1.347,1.347,0,0,0-2.53.593l-.219,6.063a.579.579,0,0,0,.015.13v.026l2.886,12.318a6.56,6.56,0,0,0-1.349.2l-3.174-7.668a1.179,1.179,0,0,0-1.522-.623l-4.853,2.008a1.17,1.17,0,0,0-.631,1.525l4.306,10.388a4.664,4.664,0,0,0,.24,9.321h25.667a4.667,4.667,0,0,0-.135-9.333Zm-.595-15.1,2.446-1.526-.866,2.091a.583.583,0,1,0,1.078.447l.866-2.09.647,2.808a11.526,11.526,0,0,0-1.691,2.792,2.4,2.4,0,0,1-3.261-1.349,11.485,11.485,0,0,0,.781-3.172Zm-1.341,4.58a3.545,3.545,0,0,0,1.454,1.058,3.686,3.686,0,0,0,1.428.3,3.136,3.136,0,0,0,.353-.021l-1.861,4.491a7.921,7.921,0,0,0-2.5-3.1Zm-7.992-4.166,2.931.179c.018.545.012,1.109-.006,1.681a12.27,12.27,0,0,1-2.922-.141c-.073-.011-.146-.019-.218-.029.058-.549.13-1.105.215-1.69Zm-.278-4.7c1.548-1.709,2.351-3.023,2.538-4.258a7.8,7.8,0,0,1,2.1,4.181,5.224,5.224,0,0,1-1.181,3.8l-3.419-.21a2.432,2.432,0,0,1-.045-3.511Zm-.045,7.549.169.022a16.674,16.674,0,0,0,2.271.193c.242,0,.5-.02.751-.039-.053.75-.14,1.534-.251,2.345-.144-.008-.285-.022-.43-.022a7.817,7.817,0,0,0-2.585.445,27.941,27.941,0,0,1,.074-2.945Zm-4.511,6.821-1.669-7.109a.583.583,0,0,0-1.135.266l1.5,6.4a6.593,6.593,0,0,0-1.272-.316l-2.561-10.925a2.774,2.774,0,0,0,1.142.248c.036,0,.076-.006.113-.008l.412,1.761a.583.583,0,1,0,1.135-.266l-.413-1.762a2.76,2.76,0,0,0,1.019-.776l2.6,11.129a7.807,7.807,0,0,0-.875,1.359Zm-3.564-12.658a1.937,1.937,0,0,1-1.948-.78l.075-2.054a3.418,3.418,0,0,0,.615.058,2.6,2.6,0,0,0,.593-.066,2.978,2.978,0,0,0,1.081-.538l.982,1.813a1.934,1.934,0,0,1-1.4,1.568Zm-1.6-6.814a.182.182,0,0,1,.2.09l1.251,2.313a1.648,1.648,0,0,1-1.686.395l.094-2.628a.182.182,0,0,1,.141-.169Zm-4.222,11.651.446,1.077-2.158.894a.583.583,0,1,0,.448,1.077l2.158-.894.447,1.078-1.08.447a.584.584,0,0,0,.224,1.123.6.6,0,0,0,.223-.045l1.079-.447.447,1.078-2.16.9a.584.584,0,0,0,.224,1.123.593.593,0,0,0,.223-.045l2.158-.894.473,1.14a6.77,6.77,0,0,0-3.777,4.6l-4.228-10.194Zm24.281,21H652.556a3.5,3.5,0,0,1,0-7,3.422,3.422,0,0,1,1,.145.583.583,0,0,0,.751-.548,5.542,5.542,0,0,1,8.867-4.322.584.584,0,0,0,.895-.263,6.71,6.71,0,0,1,12.694,4.331.583.583,0,0,0,.682.742,3.6,3.6,0,0,1,.778-.085,3.5,3.5,0,0,1,0,7Zm0,0" transform="translate(-647.897 -242.996)" fill="#e9515b"/>
</svg>
