<svg xmlns="http://www.w3.org/2000/svg" width="38.285" height="26" viewBox="0 0 38.285 26">
  <g id="Layer_2" data-name="Layer 2" transform="translate(-9 -16.38)">
    <circle id="Ellipse_195" data-name="Ellipse 195" cx="4.777" cy="4.777" r="4.777" transform="translate(34.151 20.566)" fill="#4b3c99"/>
    <path id="Path_23433" data-name="Path 23433" d="M51.858,38.232c0-.241-.058-.491-.083-.741a4.578,4.578,0,0,0-4.561-4.161H46.29a5.926,5.926,0,0,1-2.147.391,6.017,6.017,0,0,1-1.906-.308,5.718,5.718,0,0,1,.949,2.747,8.857,8.857,0,0,0,.108.957l.832,4.636A16.388,16.388,0,0,1,40.09,44.3,12.859,12.859,0,0,0,52.5,41.828Z" transform="translate(-5.214 -2.843)" fill="#4b3c99"/>
    <circle id="Ellipse_196" data-name="Ellipse 196" cx="4.777" cy="4.777" r="4.777" transform="translate(12.579 20.566)" fill="#4b3c99"/>
    <path id="Path_23434" data-name="Path 23434" d="M18.2,37.067a8.855,8.855,0,0,0,.108-.957,5.718,5.718,0,0,1,.949-2.747,6.017,6.017,0,0,1-1.906.308,5.926,5.926,0,0,1-2.147-.391h-.924a4.578,4.578,0,0,0-4.561,4.161,2.23,2.23,0,0,1-.083.741L9,41.819a12.859,12.859,0,0,0,12.418,2.43A16.388,16.388,0,0,1,17.381,41.7Z" transform="translate(0 -2.835)" fill="#4b3c99"/>
    <circle id="Ellipse_197" data-name="Ellipse 197" cx="5.776" cy="5.776" r="5.776" transform="translate(22.366 16.38)" fill="#4b3c99"/>
    <path id="Path_23435" data-name="Path 23435" d="M39.285,36.706a7.824,7.824,0,0,1-.092-.9,5.543,5.543,0,0,0-5.518-5.077H32.552a7.183,7.183,0,0,1-5.177,0H26.252a5.543,5.543,0,0,0-5.518,5.077,7.824,7.824,0,0,1-.092.9l-.782,4.353a15.555,15.555,0,0,0,20.208,0Z" transform="translate(-1.821 -2.407)" fill="#4b3c99"/>
  </g>
</svg>
