<svg id="medal" xmlns="http://www.w3.org/2000/svg" width="26.585" height="34.907" viewBox="0 0 26.585 34.907">
  <path id="Path_1456" data-name="Path 1456" d="M10,.384A1.024,1.024,0,0,0,9.2,0H1.022a1.023,1.023,0,0,0-.8,1.662L8.4,11.889,14.093,5.5Zm0,0" transform="translate(0 0)" fill="#f03800"/>
  <path id="Path_1457" data-name="Path 1457" d="M141.259,1.657l-7.67,9.593h-5.4l-4.888-.634L128.189,4.5,131.482.388a1.008,1.008,0,0,1,.8-.389h8.181a1.023,1.023,0,0,1,.92.573,1.036,1.036,0,0,1-.123,1.084Zm0,0" transform="translate(-114.894 0)" fill="#ff641a"/>
  <path id="Path_1458" data-name="Path 1458" d="M208.07,1.657l-7.67,9.593H195V4.5L198.293.388a1.008,1.008,0,0,1,.8-.389h8.181a1.023,1.023,0,0,1,.92.573,1.036,1.036,0,0,1-.123,1.084Zm0,0" transform="translate(-181.705 0)" fill="#f03800"/>
  <path id="Path_1459" data-name="Path 1459" d="M153.068,150a3.068,3.068,0,1,0,3.068,3.068A3.064,3.064,0,0,0,153.068,150Zm0,0" transform="translate(-139.773 -139.773)" fill="#ffda2d"/>
  <path id="Path_1460" data-name="Path 1460" d="M195,156.136V150a3.068,3.068,0,1,1,0,6.136Zm0,0" transform="translate(-181.705 -139.773)" fill="#fdbf00"/>
  <path id="Path_1461" data-name="Path 1461" d="M55.227,210a10.3,10.3,0,1,0,10.227,10.295A10.289,10.289,0,0,0,55.227,210Zm0,0" transform="translate(-41.932 -195.683)" fill="#fff261"/>
  <path id="Path_1462" data-name="Path 1462" d="M205.227,220.295A10.289,10.289,0,0,1,195,230.59V210A10.289,10.289,0,0,1,205.227,220.295Zm0,0" transform="translate(-181.705 -195.683)" fill="#ffda2d"/>
  <path id="Path_1463" data-name="Path 1463" d="M91.363,248.25A8.182,8.182,0,1,1,83.181,240,8.237,8.237,0,0,1,91.363,248.25Zm0,0" transform="translate(-69.887 -223.637)" fill="#ffda2d"/>
  <path id="Path_1464" data-name="Path 1464" d="M203.181,248.25A8.237,8.237,0,0,1,195,256.5V240A8.237,8.237,0,0,1,203.181,248.25Zm0,0" transform="translate(-181.705 -223.637)" fill="#fdbf00"/>
  <path id="Path_1465" data-name="Path 1465" d="M117.352,280.157a1.017,1.017,0,0,0-.838-.7l-2.986-.45-1.329-2.7a1.084,1.084,0,0,0-1.841,0l-1.329,2.7-2.986.45a1.017,1.017,0,0,0-.838.7,1,1,0,0,0,.266,1.043l2.168,2.107-.511,3.034a1.007,1.007,0,0,0,.409,1,.964.964,0,0,0,1.064.082l2.679-1.412,2.679,1.412a.964.964,0,0,0,1.064-.082,1.007,1.007,0,0,0,.409-1l-.511-3.034,2.168-2.107a1,1,0,0,0,.266-1.043Zm0,0" transform="translate(-97.982 -256.997)" fill="#fff261"/>
  <path id="Path_1466" data-name="Path 1466" d="M200.808,281.2l-2.168,2.107.511,3.034a1,1,0,0,1-.409,1,.963.963,0,0,1-1.063.082L195,286.014V275.8a1.013,1.013,0,0,1,.92.511l1.329,2.7,2.986.45a1.017,1.017,0,0,1,.838.7,1,1,0,0,1-.266,1.043Zm0,0" transform="translate(-181.705 -256.997)" fill="#ffda2d"/>
  <path id="Path_1467" data-name="Path 1467" d="M78.1,153.784a.989.989,0,0,1-1.432,0l-1.759-1.739H63.5l-1.759,1.739a1.012,1.012,0,0,1-1.432-1.432l2.045-2.045a.959.959,0,0,1,.716-.307H75.34a.959.959,0,0,1,.716.307l2.045,2.045a.989.989,0,0,1,0,1.432Zm0,0" transform="translate(-55.91 -139.773)" fill="#fff261"/>
  <path id="Path_1468" data-name="Path 1468" d="M203.9,153.784a.989.989,0,0,1-1.432,0l-1.759-1.739H195V150h6.136a.959.959,0,0,1,.716.307l2.045,2.045A.989.989,0,0,1,203.9,153.784Zm0,0" transform="translate(-181.705 -139.773)" fill="#ffda2d"/>
</svg>
