<svg xmlns="http://www.w3.org/2000/svg" width="167.825" height="63.5" viewBox="0 0 167.825 63.5">
  <g id="Group_40582" data-name="Group 40582" transform="translate(-57.175 -27.5)">
    <g id="Group_38901" data-name="Group 38901" transform="translate(57.182 28.004)">
      <path id="Exclusion_3" data-name="Exclusion 3" d="M1886.138-2054c-.109,0-.207,0-.29-.008a16.918,16.918,0,0,1-2.32-.278l-2.542-.681-2.32-.727-2.7-1.452c-.012-.017-1.763-1.293-2.793-2.042-.069,0-2.248-2.157-2.271-2.179l-1.725-2.271-1.248-1.816-1.113-2.385-.772-2.134-.863-3.292-.186-1.589v-4l.186-2.227.568-2,.907-2.657.975-2.315,1-1.976,1.748-2.089,1.7-1.771,1.929-1.453,1.326-.731.865-.409.107-.4a12.217,12.217,0,0,0-3.423.767,14.286,14.286,0,0,0-3.155,1.918v-.013a20.285,20.285,0,0,1,2.857-4.675,39.26,39.26,0,0,1,4.841-4.7,21.194,21.194,0,0,1,3.506-1.88,15.9,15.9,0,0,1,3.519-.894l.59-3.689a20.568,20.568,0,0,1,1.18-3.04c.8-1.693,2.072-3.834,2.125-3.924a.177.177,0,0,1,.02.016,28.331,28.331,0,0,1,2.676,2.795,10.292,10.292,0,0,1,1.466,2.442l1.328,3.128.009-.009a13.312,13.312,0,0,1,1.737-1.223c1.06-.629,2.519-1.3,2.533-1.307a.055.055,0,0,1,0,.014,20.393,20.393,0,0,1,.319,3.231,37.129,37.129,0,0,1-.2,3.926c.029,0,.766,1.075.8,1.121l.679,1.357.383,2.041.3,1.771.767,1,3.248,2.951,3.689,2.863-.557,1.653-1.594,1.77-1.771,1.122a6.025,6.025,0,0,1-2.3.708c-.223.022-.472.034-.742.034a15.786,15.786,0,0,1-2.357-.21l-3.155-.766-2.42-.886-1.856-.8c-.059,0-.371-.029-.788-.029a8.1,8.1,0,0,0-1.78.176,6.14,6.14,0,0,0-2.042.944h0a22.875,22.875,0,0,0-1.5,1.744l-.649,1.3c.026.021-.339,1.812-.354,1.889v2.627l.354,1.949,1.092,2.036,1.173,1.608,1.129,1.108,2.036,1.476,1.329.649,2.8.8-3.925-.383c-.055,0-3.5-1.137-3.888-1.267h-.008a19.507,19.507,0,0,1-3.178-1.74,11.819,11.819,0,0,1-2.246-2.135l-1.34-2.042-.749-2.406-.186-.8v-2.542l.186-1.207.406-1.792c-.01.029-.31.3-.4.38h0l-1.384,1.789-.432.821-.612,1.793-.3,1.385-.25,2.248v1.431l-.772-1.976a13.506,13.506,0,0,1-.5-2.428,24.807,24.807,0,0,1-.093-2.969l.408-2.088.568-1.158.928-1.408,1.044-.954,1.385-1.09,1.749-.863,1.7-.589a9.822,9.822,0,0,1,1.966-.25c.1,0,.2-.006.308-.006a13.378,13.378,0,0,1,1.7.119l1.227.136,2.339.816c.01.013.918.5,2.557,1.381h.008l2.906,1.339,2.952.973,2.179.412h.008l.116.014c.06.008.144.021.248.032a6.373,6.373,0,0,0,.754.048,3.952,3.952,0,0,0,.895-.093,9.553,9.553,0,0,0,3.062-1.725,2.474,2.474,0,0,0,.636-1l-.011.006a8.337,8.337,0,0,1-2.169.535c-.215.02-.449.03-.7.03a12.4,12.4,0,0,1-1.779-.141l-2.065-.272-2.066-.976-2.293-1.317-2.067-1.34-1.861-1.543c-.027,0-1.3-1.191-1.316-1.206l-1.272-1.09-1.226-.928-1.612-.863-1.316-.595a9.1,9.1,0,0,0-1.749-.541,4.686,4.686,0,0,0-.762-.059,4.817,4.817,0,0,0-.784.059l1.546,1.136,1.158.863.863.928.726,1.09.318.681-1.044.136-1.181.112-.976.137-1.543.3-1.226.408-1.045.341-.794.363-1.3.658-1.044.636-.885.658-1,.794-.928.863-.772.976-.886,1.34-.681,1.339-.636,1.271-.409,1.544-.271,1.68-.431-1.316-.227-1.431-.136-1.226c-.312.711-.544,1.2-.713,1.558v.007a6.614,6.614,0,0,0-.6,1.591,10.293,10.293,0,0,0-.148,2.656c0,.5.011,1.178.011,2.042a13.228,13.228,0,0,0,.136,1.554,12.014,12.014,0,0,0,.341,1.464l.658,2.181.8,1.68c.02.013,1.055,1.777,1.372,2.32l.012.021,1.431,1.884,1.838,1.839,2.429,1.862,2.384,1.316,1.907.863.589.114v-.317l-1.021-.907-1.474-1.635-.928-1.589-.681-1.543-.681-1.68-.386-1.34-.387-1.634.681.954,1.453,2.02,1.634,1.362c.058,0,1.775,1.24,1.971,1.382h0l2.2,1.3,1.407.658,2.793.928,2.917.658a19.575,19.575,0,0,0,3.526.339h.093a13.384,13.384,0,0,0,4.9-.976,8.421,8.421,0,0,0,2.816-2.542c.709-.921.7-1.64.672-3.773v-.012c-.006-.479-.013-1.021-.013-1.653v-4.277a19.764,19.764,0,0,1,.311-2.537,18.467,18.467,0,0,1,.689-2.413,7.7,7.7,0,0,1,1.193-2.128,16.636,16.636,0,0,1,2.212-2.162c.006-.041,3.123-1.776,3.155-1.794l3.291-1.365,2.4-.742a10.086,10.086,0,0,0-1.9,2.575c-.591,1.251-.69,2.674-.888,5.507q-.031.441-.065.928l-.226,3.179-.363,2.111-.637,1.908c.008.03-.966,2-.975,2.02l-.976,1.34-.59.636-.727,1.93c0,.021-1.1,1.887-1.113,1.907l-1.749,2.293-2.814,2.725-1.93,1.43-2.769,1.566-2.7.976-2.475.568C1892.512-2054.6,1887.845-2054,1886.138-2054Zm-11.961-6h0l1.881,1.316,3.184,1.572a16.409,16.409,0,0,0,3.654,1.3,21.631,21.631,0,0,0,5.207.657,18.41,18.41,0,0,0,1.856-.093,36.733,36.733,0,0,0,4.863-.928,19.342,19.342,0,0,0,4.918-2.337,18.172,18.172,0,0,0,4.863-4.258,8.18,8.18,0,0,0,1.894-3.667l-2.982,2.955-2.713,2.1-2,1.073-2.659.928-2.164.4c-.007,0-.742.045-1.641.045-.524,0-1-.015-1.411-.045a15.413,15.413,0,0,1-2.523-.4l-3.143-1.236-2.849-1.531a2.468,2.468,0,0,0,.175.416,17.032,17.032,0,0,0,2.673,2.1,18.476,18.476,0,0,0,3.143,1.477l2.728.792-2.58.269-4.514-.081-2.579-.309-2.431-.577-2.821-1.049Zm37.992-25.51a27.122,27.122,0,0,0-4.132,2.272,7.113,7.113,0,0,0-2.176,2.2l0,.007c-.12.174-.256.371-.416.593a8.247,8.247,0,0,0-1.505,4.84,25.855,25.855,0,0,0,.383,4.161s0-.013.123-.013c.081,0,.2,0,.341.013h.008v-.008a16.682,16.682,0,0,1,1.033-3.976,18.972,18.972,0,0,1,2.391-3.925l.8-.945c.02.009,1.228,1.57,1.746,2.241l.023.03v-.01a20.882,20.882,0,0,1,.3-3.317,32.577,32.577,0,0,1,1.086-4.162Zm-16.4-12.318,1.665,1.1h.43c0-.011.49-1.193.215-1.719-.237-.455-.32-.5-.856-.8l-.021-.012-.3-.17a7.385,7.385,0,0,0-2.691-.484h-.016a.16.16,0,0,0-.145.069c-.04.08.014.22.16.416a16.1,16.1,0,0,0,1.559,1.6Zm-9.422-9.056h0a8.644,8.644,0,0,1,2.153.255,4.525,4.525,0,0,1,1.528,1.263h.269l-.174-2.3-.456-2.646-.928-2.377-.7-1.062c0,.056-.5,1.318-.51,1.331l-.6,1.894-.3,1.263-.242.819-.054,1.558Z" transform="translate(-1865 2117)" fill="#1e253f"/>
    </g>
    <g id="Group_40579" data-name="Group 40579" transform="translate(-24.5 -1.5)">
      <text id="Jackal" transform="translate(143.5 75)" fill="#1e253f" font-size="43" font-family="SegoeUI, Segoe UI"><tspan x="0" y="0">jackal</tspan></text>
    </g>
  </g>
</svg>
