<svg xmlns="http://www.w3.org/2000/svg" width="132.341" height="55" viewBox="0 0 132.341 55">
  <g id="Group_38569" data-name="Group 38569" transform="translate(-85.096 -146)">
    <g id="Group_38357" data-name="Group 38357" transform="translate(85.096 146)">
      <path id="Path_1" data-name="Path 1" d="M1370.669,968.255c-6.667,1.7-9.643,14.231.713,16.557-2.109-1.861-3.287-4.714-2.668-6.759a10.377,10.377,0,0,0,5.954,5.333,20.447,20.447,0,0,1,12.155-8.96c-4.526-.28-9.147.155-13.053,3.286a46.555,46.555,0,0,1,5.052-1.24,23.893,23.893,0,0,0-2.821,2.2c-1.828,1.674-4.744.682-5.735-1.3-1.333-2.7-1.891-6.171.4-9.116Zm7.535,13.021c7.658-1.86,22.354-6.852,22.354-6.852-9.393,1.023-15.781,3.658-22.354,6.852Zm21.238-8.34a13.912,13.912,0,0,0,10.542-5.674c-.031,3.72-5.115,7.72-10.542,5.674Zm14.325-4.774a8.777,8.777,0,0,1-.218,6.263,12.322,12.322,0,0,1-2.975.775,8.219,8.219,0,0,0,3.193-7.038Zm-5.829,11.285c-1.086-.216-2.7-.4-3.224-.465,0,0,.092-1.054.184-2.914a22.233,22.233,0,0,0,2.853.992Zm-17.209,4.373a46.929,46.929,0,0,1,13.426.093c-.062.248-.125.712-.217,1.177a22.281,22.281,0,0,1,4.465.528l-.186-2.326c-4.187-1.085-11.256-.9-17.489.528Z" transform="translate(-1357.884 -956.977)" fill="#0d0d0d" fill-rule="evenodd" opacity="0.1"/>
      <path id="Path_2" data-name="Path 2" d="M1237.8,728.224c2.976-1.922,7.224-3.969,12.9,1.054,7.535-5.983,12.805-4.5,14.294-.588,1.4,3.6-1.612,9.27-8.929,10.356a8.223,8.223,0,0,0,3.192-7.038c-2.728,5.21-9.146,6.449-11.41,6.542a18.3,18.3,0,0,0,5.394,2.356l.248,3.133c-4.836-1.365-13.518.744-17.269,3.627,6.233-1.426,13.3-1.612,17.487-.527l.185,2.325c-6.075-1.394-18.758-.309-28.184,4.961,13.984-3.534,26.574-1.27,32.711.032-.278-4.712-.9-10.79-1.116-12.961,5.24.186,10.265-1.984,12-7.318,1.83-5.55-.9-12.123-7.348-13.24-3.255-.558-7.162.931-11.781,3.938-4.961-3.163-11.752-.247-12.372,3.348Zm-14.107,16.9c2.325-4.311,13.735-9.209,22.355-6.853-9.4,1.024-15.781,3.658-22.355,6.853Zm3.007,2.45Zm-.31.124a11.037,11.037,0,0,1-12.185-5.8c-.621,2.046.558,4.9,2.666,6.758-4.681-.837-8.37-3.907-7.473-9.984,1.862-12.712,18.2-7.007,27.349-6.449,4.494.279,7.751-.5,9.208-2.852-7.224,4.186-20.65-5.085-32.463-2.759-9.642,1.892-13.487,15.316-6.666,22.076,6.2,6.108,18.573,6.387,22.695-2.7a13.776,13.776,0,0,1-2.821,1.582Z" transform="translate(-1203.372 -720.823)" fill="#0d0d0d" fill-rule="evenodd"/>
      <path id="Path_3" data-name="Path 3" d="M1463.179,1718.1c-2.2,0-7.316-.619-14.6,7.753-5.457,5.427-9.4,2.7-9.117.093a1.446,1.446,0,0,1,1.116-1.27,1.053,1.053,0,0,0-.217.68,1.079,1.079,0,0,0,1.086,1.086,1.143,1.143,0,0,0,1.086-1.086c.03-.743-.684-1.488-1.861-1.518-2.76-.033-3.968,2.7-2.6,5.021,2.293,3.879,9.8,3.008,12.958.156a8.945,8.945,0,0,1-1.27,1.735c.28-.061.591-.154.869-.215,5.518-1.4,10.354-3.813,12.557-5.859,2.172,2.046,7.008,4.463,12.526,5.859.28.061.591.154.869.215a8.946,8.946,0,0,1-1.27-1.735c3.162,2.851,10.665,3.722,12.958-.156,1.366-2.323.156-5.053-2.6-5.021-1.179.03-1.892.775-1.864,1.518a1.143,1.143,0,0,0,1.086,1.086,1.1,1.1,0,0,0,1.116-1.086,1.079,1.079,0,0,0-.248-.68,1.518,1.518,0,0,1,1.147,1.27c.247,2.6-3.69,5.334-9.145-.093-7.286-8.372-12.4-7.753-14.574-7.753Z" transform="translate(-1427.732 -1676.467)" fill="#0d0d0d" fill-rule="evenodd"/>
      <path id="Path_5" data-name="Path 5" d="M2178.3,1534.1a2.719,2.719,0,0,1,.99.184,1.444,1.444,0,0,0-.154.651,1.191,1.191,0,0,0,1.21,1.21,1.142,1.142,0,0,0,.715-.217,3.589,3.589,0,0,1,.215,1.147,2.976,2.976,0,1,1-2.975-2.975Z" transform="translate(-2134.76 -1500.156)" fill="#0d0d0d" fill-rule="evenodd"/>
      <path id="Path_6" data-name="Path 6" d="M1829.448,1593.529a2.565,2.565,0,0,1,2.573,2.449H1826.9a2.538,2.538,0,0,1,2.543-2.449Z" transform="translate(-1800.881 -1557.107)" fill="#0d0d0d" fill-rule="evenodd"/>
    </g>
    <text id="Hade_pizza" data-name="Hade
pizza" transform="translate(162.437 171)" fill="#ff9c00" font-size="25" font-family="GillSans-UltraBoldCondensed, Gill Sans" font-weight="700"><tspan x="0" y="0">Hade</tspan><tspan fill="#0d0d0d"><tspan x="0" y="24">pizza</tspan></tspan></text>
  </g>
</svg>
