<svg xmlns="http://www.w3.org/2000/svg" width="206.599" height="78.117" viewBox="0 0 206.599 78.117">
  <g id="Group_40551" data-name="Group 40551" transform="translate(-965 -4.401)">
    <g id="Group_11988" data-name="Group 11988" transform="matrix(0.995, 0.105, -0.105, 0.995, 1085.09, 0.482)">
      <path id="path416" d="M6.786,19.418a.908.908,0,0,1-.91-.91V12.659a.908.908,0,0,1,.91-.91A4.965,4.965,0,1,0,1.82,6.787a.91.91,0,1,1-1.82,0A6.784,6.784,0,1,1,7.7,13.51v5a.91.91,0,0,1-.91.91" transform="translate(37.494 0)" fill="#ff6283"/>
      <path id="path418" d="M50.041,10.113l29.191,16.9H9.325l29.2-16.9a11.511,11.511,0,0,1,11.521,0Zm38.3,17.154a7.055,7.055,0,0,0-5.066-4.085c-3.1-.832-13.954-7.341-20.437-11.23-2.074-1.245-3.866-2.318-5.132-3.048a26.8,26.8,0,0,1-4.719-3.88C50.4,2.554,47.719,0,44.28,0s-6.116,2.554-8.709,5.023a26.655,26.655,0,0,1-4.72,3.88c-1.262.73-3.054,1.8-5.128,3.048-6.487,3.89-17.34,10.4-20.441,11.23A7.046,7.046,0,0,0,.221,27.266,2.918,2.918,0,0,0,.5,30.018c.547.818,7.834-3,8.822-3H79.232c.984,0,8.276,3.82,8.825,3a2.94,2.94,0,0,0,.283-2.751" transform="translate(0 14.963)" fill="#ff6283"/>
    </g>
    <text id="BalkanDress" transform="translate(965 73.518)" fill="#0a0a0a" font-size="36" font-family="SegoeUI, Segoe UI" letter-spacing="0.03em"><tspan x="0" y="0">BalkanDress</tspan></text>
  </g>
</svg>
