<svg xmlns="http://www.w3.org/2000/svg" width="66" height="66" viewBox="0 0 66 66">
  <g id="Group_29" data-name="Group 29" transform="translate(1062 -4279)">
    <circle id="Ellipse_6" data-name="Ellipse 6" cx="33" cy="33" r="33" transform="translate(-1062 4279)" fill="rgba(228,167,88,0.38)"/>
    <g id="_179483716716345278714481" data-name="179483716716345278714481" transform="translate(-1047.908 4294.528)">
      <path id="Path_73" data-name="Path 73" d="M27.868,23.166a12.905,12.905,0,1,0-17.92,0L6.605,28.954a1.424,1.424,0,0,0,.055,1.52,1.442,1.442,0,0,0,1.405.616l2.494-.38.919,2.352a1.434,1.434,0,0,0,1.236.907c.036,0,.072,0,.105,0a1.419,1.419,0,0,0,1.236-.717l3.758-6.508c.358.03.723.055,1.092.055s.731-.025,1.092-.055l3.757,6.508a1.42,1.42,0,0,0,1.237.717.852.852,0,0,0,.105,0,1.434,1.434,0,0,0,1.238-.911l.917-2.348,2.5.381a1.433,1.433,0,0,0,1.455-2.137ZM12.812,32.538l-1.125-2.882a.717.717,0,0,0-.776-.448l-3.064.462,3.206-5.555a12.844,12.844,0,0,0,5.227,2.418ZM7.435,13.9A11.485,11.485,0,1,1,10.8,22,11.471,11.471,0,0,1,7.435,13.9ZM26.9,29.205a.717.717,0,0,0-.776.448L25,32.538l-3.47-6.005a12.843,12.843,0,0,0,5.228-2.418l3.2,5.555Z" fill="#f18e0c"/>
      <path id="Path_74" data-name="Path 74" d="M20.32,6a9.331,9.331,0,1,0,6.587,2.733A9.32,9.32,0,0,0,20.32,6Zm0,17.207a7.9,7.9,0,1,1,5.574-2.313A7.887,7.887,0,0,1,20.32,23.207Z" transform="translate(-1.414 -1.423)" fill="#f18e0c"/>
      <path id="Path_75" data-name="Path 75" d="M27.593,15.337a.717.717,0,0,0-.48-.466l-3.075-.907-1.813-2.645a.744.744,0,0,0-1.183,0l-1.813,2.645-3.075.907A.717.717,0,0,0,15.788,16l1.956,2.539-.088,3.206a.717.717,0,0,0,.956.695l3.021-1.073,3.021,1.075a.717.717,0,0,0,.956-.695l-.088-3.208,1.956-2.541a.717.717,0,0,0,.114-.657Zm-3.361,2.527a.71.71,0,0,0-.148.457l.066,2.415-2.276-.809a.716.716,0,0,0-.48,0l-2.276.809.066-2.415a.71.71,0,0,0-.148-.457L17.563,15.95l2.316-.683a.717.717,0,0,0,.389-.282l1.366-1.992L23,14.985a.717.717,0,0,0,.389.282l2.316.683Z" transform="translate(-2.728 -2.846)" fill="#f18e0c"/>
    </g>
  </g>
</svg>
