<svg xmlns="http://www.w3.org/2000/svg" width="66" height="66" viewBox="0 0 66 66">
  <g id="Group_28" data-name="Group 28" transform="translate(1040 -4041)">
    <circle id="Ellipse_4" data-name="Ellipse 4" cx="33" cy="33" r="33" transform="translate(-1040 4041)" fill="rgba(235,52,52,0.18)"/>
    <g id="_10879295351634472857" data-name="10879295351634472857" transform="translate(-1044.334 4017.333)">
      <path id="Path_66" data-name="Path 66" d="M49.92,42.668h-.033l-9.995.027a3.762,3.762,0,0,0-2.571,1.021L22.043,58.038a2.244,2.244,0,0,0-.052,3.224L32.739,72.01a2.225,2.225,0,0,0,1.586.657h.037a2.227,2.227,0,0,0,1.6-.709L50.286,56.68a3.762,3.762,0,0,0,1.021-2.571l.027-10.027A1.471,1.471,0,0,0,49.92,42.668Zm-.042,11.438a2.34,2.34,0,0,1-.634,1.6L34.921,70.981a.809.809,0,0,1-.582.257.775.775,0,0,1-.59-.239L23,60.252a.816.816,0,0,1,.019-1.172L38.3,44.757a2.337,2.337,0,0,1,1.6-.634l9.968-.027c.024,0,.041.02.041.015Z" transform="translate(0)" fill="#f10e0e"/>
      <path id="Path_67" data-name="Path 67" d="M173.612,212.969a.714.714,0,0,0-1.01,0l-.644.643a3.466,3.466,0,0,0-.769-.373,2.494,2.494,0,0,0-2.565.461c-1.16,1.16-.477,2.679-.11,3.495.054.12.1.228.14.323.051.13.115.275.184.43.424.95.558,1.47.167,1.861a1.134,1.134,0,0,1-1.109.114,2.64,2.64,0,0,1-1.641-2.246.714.714,0,0,0-1.413.216,4.694,4.694,0,0,0,.8,2.031l-.618.618a.714.714,0,1,0,1.01,1.01l.644-.644a3.464,3.464,0,0,0,.769.373,3.071,3.071,0,0,0,.955.157,2.245,2.245,0,0,0,1.61-.619c1.155-1.155.486-2.651.127-3.454-.059-.131-.114-.253-.156-.363s-.1-.247-.169-.392c-.353-.786-.611-1.471-.183-1.9a1.134,1.134,0,0,1,1.109-.114,2.64,2.64,0,0,1,1.641,2.247.714.714,0,0,0,1.413-.216,4.693,4.693,0,0,0-.8-2.031l.618-.618A.714.714,0,0,0,173.612,212.969Z" transform="translate(-133.877 -158.703)" fill="#f10e0e"/>
      <path id="Path_68" data-name="Path 68" d="M339.49,110.645a2.143,2.143,0,1,0,2.143,2.143A2.143,2.143,0,0,0,339.49,110.645Zm0,2.857a.714.714,0,1,1,.714-.714.714.714,0,0,1-.714.714Z" transform="translate(-294.851 -63.426)" fill="#f10e0e"/>
    </g>
  </g>
</svg>
