<svg xmlns="http://www.w3.org/2000/svg" width="28.002" height="18" viewBox="0 0 28.002 18">
  <g id="Icon_ionic-ios-eye" data-name="Icon ionic-ios-eye" transform="translate(-2.252 -7.875)">
    <path id="Path_23468" data-name="Path 23468" d="M16.238,7.875c-5.025,0-8.987,3.163-13.725,8.331a.988.988,0,0,0-.006,1.331c4.056,4.481,7.631,8.337,13.731,8.337,6.025,0,10.544-4.856,13.756-8.375a.98.98,0,0,0,.031-1.294C26.75,12.238,22.219,7.875,16.238,7.875Zm.275,14.619a5.625,5.625,0,1,1,5.356-5.356A5.627,5.627,0,0,1,16.513,22.494Z" fill="#48494b"/>
    <path id="Path_23469" data-name="Path 23469" d="M17.5,14.563a2.937,2.937,0,0,1,.194-1.056c-.062,0-.125-.006-.194-.006a4,4,0,1,0,4,4c0-.081-.006-.163-.006-.244a2.771,2.771,0,0,1-1.138.244A2.9,2.9,0,0,1,17.5,14.563Z" transform="translate(-1.25 -0.625)" fill="#48494b"/>
  </g>
</svg>
