<svg xmlns="http://www.w3.org/2000/svg" width="20.89" height="23.211" viewBox="0 0 20.89 23.211">
  <path id="Icon_material-date-range" data-name="Icon material-date-range" d="M11.463,13.445H9.142v2.321h2.321Zm4.642,0H13.784v2.321h2.321Zm4.642,0H18.426v2.321h2.321Zm2.321-8.124H21.908V3H19.587V5.321H10.3V3H7.982V5.321H6.821A2.311,2.311,0,0,0,4.512,7.642L4.5,23.89a2.32,2.32,0,0,0,2.321,2.321H23.069A2.328,2.328,0,0,0,25.39,23.89V7.642A2.328,2.328,0,0,0,23.069,5.321Zm0,18.569H6.821V11.124H23.069Z" transform="translate(-4.5 -3)" fill="#c1bbbb"/>
</svg>
