<svg xmlns="http://www.w3.org/2000/svg" width="21.843" height="21.843" viewBox="0 0 21.843 21.843">
  <path id="Icon_ionic-ios-help-circle" data-name="Icon ionic-ios-help-circle" d="M14.3,3.375A10.921,10.921,0,1,0,25.218,14.3,10.92,10.92,0,0,0,14.3,3.375Zm-.226,15.962A1.083,1.083,0,1,1,15.2,18.255,1.1,1.1,0,0,1,14.071,19.337Zm2.111-5.088c-.914.53-1.223.919-1.223,1.591v.415H13.136L13.12,15.8a2.186,2.186,0,0,1,1.239-2.31c.887-.53,1.26-.866,1.26-1.517a1.274,1.274,0,0,0-1.412-1.129A1.328,1.328,0,0,0,12.8,12.138H10.936c.037-1.691,1.286-2.888,3.4-2.888,1.969,0,3.324,1.092,3.324,2.662A2.57,2.57,0,0,1,16.181,14.249Z" transform="translate(-3.375 -3.375)" fill="#c1bbbb"/>
</svg>
