<svg xmlns="http://www.w3.org/2000/svg" width="25.344" height="17.741" viewBox="0 0 25.344 17.741">
  <path id="Icon_awesome-user-friends" data-name="Icon awesome-user-friends" d="M7.6,11.121A4.435,4.435,0,1,0,3.168,6.685,4.433,4.433,0,0,0,7.6,11.121Zm3.041,1.267h-.329a6.124,6.124,0,0,1-5.425,0H4.562A4.563,4.563,0,0,0,0,16.95v1.14a1.9,1.9,0,0,0,1.9,1.9h11.4a1.9,1.9,0,0,0,1.9-1.9V16.95A4.563,4.563,0,0,0,10.645,12.388Zm8.364-1.267a3.8,3.8,0,1,0-3.8-3.8A3.8,3.8,0,0,0,19.008,11.121Zm1.9,1.267h-.15a4.994,4.994,0,0,1-3.5,0h-.15A4.4,4.4,0,0,0,14.9,13a5.8,5.8,0,0,1,1.572,3.952V18.47c0,.087-.02.17-.024.253h6.993a1.9,1.9,0,0,0,1.9-1.9,4.433,4.433,0,0,0-4.435-4.435Z" transform="translate(0 -2.25)" fill="#c1bbbb"/>
</svg>
