<svg xmlns="http://www.w3.org/2000/svg" width="22.627" height="21.684" viewBox="0 0 22.627 21.684">
  <path id="Path_23279" data-name="Path 23279" d="M23.627,13.785a2.36,2.36,0,0,0-2.357-2.357h-.943V10.014a8.014,8.014,0,0,0-16.027,0v1.414H3.357A2.36,2.36,0,0,0,1,13.785v2.828A2.36,2.36,0,0,0,3.357,18.97H6.185V11.428H5.243V10.014a7.071,7.071,0,0,1,14.142,0v1.414h-.943V18.97h.943v2.357a1.416,1.416,0,0,1-1.414,1.414H13.256v.943H17.97a2.36,2.36,0,0,0,2.357-2.357V18.97h.943a2.36,2.36,0,0,0,2.357-2.357ZM5.243,18.027H3.357a1.416,1.416,0,0,1-1.414-1.414V13.785a1.416,1.416,0,0,1,1.414-1.414H5.243Zm17.442-1.414a1.416,1.416,0,0,1-1.414,1.414H19.384V12.371H21.27a1.416,1.416,0,0,1,1.414,1.414Z" transform="translate(-1 -2)" fill="#c1bbbb"/>
</svg>
