<svg xmlns="http://www.w3.org/2000/svg" width="17.786" height="20.78" viewBox="0 0 17.786 20.78">
  <path id="Icon_awesome-user-graduate" data-name="Icon awesome-user-graduate" d="M12.681,13.01,8.893,16.882,5.106,13.01A5.39,5.39,0,0,0,0,18.44v.39a1.928,1.928,0,0,0,1.906,1.948H15.88a1.928,1.928,0,0,0,1.906-1.948v-.39a5.39,5.39,0,0,0-5.106-5.43ZM.54,3.238.794,3.3v2.37A.948.948,0,0,0,.758,7.292L.139,9.82c-.067.28.083.568.3.568H2.1c.218,0,.369-.288.3-.568L1.783,7.292a.948.948,0,0,0-.036-1.623V3.534l2.62.645a5.247,5.247,0,0,0-.556,2.313,5.139,5.139,0,0,0,5.082,5.195,5.139,5.139,0,0,0,5.082-5.195,5.193,5.193,0,0,0-.556-2.313l3.823-.942a.648.648,0,0,0,0-1.278L9.683.093a3.338,3.338,0,0,0-1.576,0L.54,1.955a.651.651,0,0,0,0,1.282Z" transform="translate(0 0.002)" fill="#c1bbbb"/>
</svg>
