<svg xmlns="http://www.w3.org/2000/svg" width="22.06" height="14.706" viewBox="0 0 22.06 14.706">
  <path id="Icon_awesome-newspaper" data-name="Icon awesome-newspaper" d="M21.14,4.5H3.37a.919.919,0,0,0-.919.919v.306H.919A.919.919,0,0,0,0,6.645V17.062a2.145,2.145,0,0,0,2.145,2.145H20.221a1.838,1.838,0,0,0,1.838-1.838V5.419A.919.919,0,0,0,21.14,4.5Zm-19,12.868a.306.306,0,0,1-.306-.306v-9.5h.613v9.5A.306.306,0,0,1,2.145,17.368Zm9.038-.613H5.362a.46.46,0,0,1-.46-.46v-.306a.46.46,0,0,1,.46-.46h5.821a.46.46,0,0,1,.46.46V16.3A.46.46,0,0,1,11.183,16.755Zm7.966,0H13.328a.46.46,0,0,1-.46-.46v-.306a.46.46,0,0,1,.46-.46h5.821a.46.46,0,0,1,.46.46V16.3A.46.46,0,0,1,19.149,16.755Zm-7.966-3.677H5.362a.46.46,0,0,1-.46-.46v-.306a.46.46,0,0,1,.46-.46h5.821a.46.46,0,0,1,.46.46v.306A.46.46,0,0,1,11.183,13.079Zm7.966,0H13.328a.46.46,0,0,1-.46-.46v-.306a.46.46,0,0,1,.46-.46h5.821a.46.46,0,0,1,.46.46v.306A.46.46,0,0,1,19.149,13.079Zm0-3.677H5.362a.46.46,0,0,1-.46-.46V7.411a.46.46,0,0,1,.46-.46H19.149a.46.46,0,0,1,.46.46V8.943A.46.46,0,0,1,19.149,9.4Z" transform="translate(0 -4.5)" fill="#c1bbbb"/>
</svg>
