<svg xmlns="http://www.w3.org/2000/svg" width="85" height="13" viewBox="0 0 85 13">
  <g id="Group_36" data-name="Group 36" transform="translate(-414 -4910)">
    <path id="Polygon_1" data-name="Polygon 1" d="M6.5,0,8.45,4.364l4.55.6-3.345,3.3L10.517,13,6.5,10.674,2.483,13l.862-4.736L0,4.966l4.55-.6Z" transform="translate(414 4910)" fill="#ffc000"/>
    <path id="Polygon_2" data-name="Polygon 2" d="M6.5,0,8.45,4.364l4.55.6-3.345,3.3L10.517,13,6.5,10.674,2.483,13l.862-4.736L0,4.966l4.55-.6Z" transform="translate(432 4910)" fill="#ffc000"/>
    <path id="Polygon_3" data-name="Polygon 3" d="M6.5,0,8.45,4.364l4.55.6-3.345,3.3L10.517,13,6.5,10.674,2.483,13l.862-4.736L0,4.966l4.55-.6Z" transform="translate(450 4910)" fill="#ffc000"/>
    <path id="Polygon_4" data-name="Polygon 4" d="M6.5,0,8.45,4.364l4.55.6-3.345,3.3L10.517,13,6.5,10.674,2.483,13l.862-4.736L0,4.966l4.55-.6Z" transform="translate(468 4910)" fill="#ffc000"/>
    <path id="Polygon_5" data-name="Polygon 5" d="M6.5,0,8.45,4.364l4.55.6-3.345,3.3L10.517,13,6.5,10.674,2.483,13l.862-4.736L0,4.966l4.55-.6Z" transform="translate(486 4910)" fill="#ffc000"/>
  </g>
</svg>
