<svg xmlns="http://www.w3.org/2000/svg" width="30" height="30" viewBox="0 0 30 30">
  <g id="_3792137161586787349" data-name="3792137161586787349" transform="translate(-2 -2)">
    <path id="Path_69" data-name="Path 69" d="M29.5,6H27V4a2,2,0,0,0-4,0V6H11V4A2,2,0,0,0,7,4V6H4.5A2.5,2.5,0,0,0,2,8.5v21A2.5,2.5,0,0,0,4.5,32h25A2.5,2.5,0,0,0,32,29.5V8.5A2.5,2.5,0,0,0,29.5,6ZM24,4a1,1,0,0,1,2,0V8a1,1,0,0,1-2,0ZM8,4a1,1,0,0,1,2,0V8A1,1,0,0,1,8,8ZM4.5,7H7V8a2,2,0,0,0,4,0V7H23V8a2,2,0,0,0,4,0V7h2.5A1.5,1.5,0,0,1,31,8.5V12H3V8.5A1.5,1.5,0,0,1,4.5,7Zm25,24H4.5A1.5,1.5,0,0,1,3,29.5V13H31V29.5A1.5,1.5,0,0,1,29.5,31Z" fill="#1120f2"/>
    <rect id="Rectangle_11" data-name="Rectangle 11" width="1" height="1" transform="translate(16.5 10)" fill="#1120f2"/>
    <rect id="Rectangle_12" data-name="Rectangle 12" width="1" height="1" transform="translate(18.5 10)" fill="#1120f2"/>
    <rect id="Rectangle_13" data-name="Rectangle 13" width="1" height="1" transform="translate(14.5 10)" fill="#1120f2"/>
    <path id="Path_70" data-name="Path 70" d="M21.147,49.5a7.014,7.014,0,0,1-6.758-5.225l2.1.7.316-.948-3-1a.5.5,0,0,0-.512.121l-2,2,.707.707,1.4-1.4a7.988,7.988,0,0,0,15.667-.887l-.991-.132A7.015,7.015,0,0,1,21.147,49.5Z" transform="translate(-4.647 -20.5)" fill="#1120f2"/>
    <path id="Path_71" data-name="Path 71" d="M30.824,32.048a7.988,7.988,0,0,0-15.667.886l.991.132a6.988,6.988,0,0,1,13.688-.841l-2.1-.7-.317.948,3,1a.5.5,0,0,0,.512-.12l2-2-.707-.707Z" transform="translate(-6.578 -12)" fill="#1120f2"/>
    <path id="Path_72" data-name="Path 72" d="M28.5,42.5,32,39l-.707-.707-3.146,3.146L27,40.293,26.293,41l1.5,1.5a.5.5,0,0,0,.707,0Z" transform="translate(-12.147 -18.146)" fill="#1120f2"/>
  </g>
</svg>
