<svg xmlns="http://www.w3.org/2000/svg" width="21.661" height="10" viewBox="0 0 21.661 10">
  <path id="Icon_ionic-md-infinite" data-name="Icon ionic-md-infinite" d="M23.516,12.708a5.352,5.352,0,0,0-7.339-.005l-.917.828L16.984,15.2l.885-.8.005-.005a2.865,2.865,0,0,1,3.927-.005,2.556,2.556,0,0,1,0,3.719,2.865,2.865,0,0,1-3.927.005L12.24,12.708a5.345,5.345,0,0,0-7.339,0,4.873,4.873,0,0,0,0,7.083,5.345,5.345,0,0,0,7.339,0l1.969-1.88,1.964,1.88a5.346,5.346,0,0,0,7.333.005,4.879,4.879,0,0,0,.01-7.089Zm-12.979,5.4a2.865,2.865,0,0,1-3.927.005,2.556,2.556,0,0,1,0-3.719,2.865,2.865,0,0,1,3.927-.005l1.948,1.865Z" transform="translate(-3.375 -11.25)" opacity="0.5"/>
</svg>
