<svg xmlns="http://www.w3.org/2000/svg" width="15" height="20" viewBox="0 0 15 20">
  <path id="Icon_awesome-award" data-name="Icon awesome-award" d="M3.794,14.165c-.339-.339-.162-.244-.981-.463a2.818,2.818,0,0,1-.993-.52L.047,17.527a.625.625,0,0,0,.6.861l2.058-.079,1.416,1.5a.625.625,0,0,0,1.032-.194l2.033-4.985a2.8,2.8,0,0,1-3.4-.461Zm11.159,3.362-1.772-4.345a2.812,2.812,0,0,1-.993.52c-.823.22-.643.124-.981.463a2.8,2.8,0,0,1-3.4.461L9.843,19.61a.625.625,0,0,0,1.032.194l1.416-1.5,2.058.079A.625.625,0,0,0,14.953,17.527Zm-4.68-4.246c.6-.607.665-.555,1.515-.787A1.587,1.587,0,0,0,12.9,11.362a2.51,2.51,0,0,1,1.014-1.787,1.62,1.62,0,0,0,.407-1.546,2.54,2.54,0,0,1,0-2.064,1.62,1.62,0,0,0-.407-1.546A2.511,2.511,0,0,1,12.9,2.632,1.587,1.587,0,0,0,11.788,1.5,2.449,2.449,0,0,1,10.033.468,1.554,1.554,0,0,0,8.513.054a2.417,2.417,0,0,1-2.027,0A1.553,1.553,0,0,0,4.967.468,2.447,2.447,0,0,1,3.212,1.5,1.587,1.587,0,0,0,2.1,2.632,2.51,2.51,0,0,1,1.086,4.419,1.619,1.619,0,0,0,.679,5.965a2.539,2.539,0,0,1,0,2.063,1.621,1.621,0,0,0,.407,1.546A2.51,2.51,0,0,1,2.1,11.362a1.587,1.587,0,0,0,1.112,1.132c.874.238.939.2,1.515.787a1.552,1.552,0,0,0,1.943.227,1.55,1.55,0,0,1,1.661,0A1.552,1.552,0,0,0,10.273,13.281ZM3.815,6.873A3.686,3.686,0,1,1,7.5,10.624,3.718,3.718,0,0,1,3.815,6.873Z" transform="translate(0 0.001)" opacity="0.5"/>
</svg>
