<svg xmlns="http://www.w3.org/2000/svg" width="28.374" height="28.374" viewBox="0 0 28.374 28.374">
  <path id="Path_23501" data-name="Path 23501" d="M28.827,4H7.547A3.551,3.551,0,0,0,4,7.547V28.827a3.551,3.551,0,0,0,3.547,3.547H28.827a3.551,3.551,0,0,0,3.547-3.547V7.547A3.551,3.551,0,0,0,28.827,4Zm2.128,3.547v9.931H18.9V5.419h9.931a2.128,2.128,0,0,1,2.128,2.128ZM7.547,5.419h9.931V17.478H5.419V7.547A2.128,2.128,0,0,1,7.547,5.419ZM5.419,28.827V18.9H17.478V30.955H7.547a2.128,2.128,0,0,1-2.128-2.128Zm23.409,2.128H18.9V18.9H30.955v9.931a2.128,2.128,0,0,1-2.128,2.128Z" transform="translate(-4 -4)" fill="#4bbf4f"/>
</svg>
