<svg xmlns="http://www.w3.org/2000/svg" width="35" height="35" viewBox="0 0 35 35">
  <g id="icon" transform="translate(-435 -1196)">
    <rect id="Rectangle_12" data-name="Rectangle 12" width="7.583" height="1.167" transform="translate(437.917 1199.5)" fill="#6c5ce7"/>
    <rect id="Rectangle_13" data-name="Rectangle 13" width="7.583" height="1.167" transform="translate(437.917 1201.833)" fill="#6c5ce7"/>
    <rect id="Rectangle_14" data-name="Rectangle 14" width="5.25" height="1.167" transform="translate(437.917 1204.167)" fill="#6c5ce7"/>
    <rect id="Rectangle_15" data-name="Rectangle 15" width="5.25" height="1.167" transform="translate(437.917 1206.5)" fill="#6c5ce7"/>
    <rect id="Rectangle_16" data-name="Rectangle 16" width="35" height="1.167" transform="translate(435 1229.833)" fill="#6c5ce7"/>
    <path id="Path_3" data-name="Path 3" d="M597.742,355.99l-2.333-4.667a.583.583,0,0,0-.782-.261h0l-4.666,2.333a.584.584,0,0,0,.522,1.044l3.38-1.689-.922,2.633a31.129,31.129,0,0,1-26.684,20.7l.1,1.167a32.3,32.3,0,0,0,27.687-21.482l.941-2.69,1.716,3.433a.583.583,0,1,0,1.044-.522Zm0,0" transform="translate(-128.97 845)" fill="#6c5ce7"/>
    <path id="Path_4" data-name="Path 4" d="M570.992,390.89h-4.083a.583.583,0,0,0-.583.583v3.5a.583.583,0,0,0,.583.583h4.083a.583.583,0,0,0,.583-.583v-3.5a.583.583,0,0,0-.583-.583Zm-.583,3.5h-2.917v-2.333h2.917Zm0,0" transform="translate(-128.991 833.11)" fill="#6c5ce7"/>
    <path id="Path_5" data-name="Path 5" d="M580.133,388.4h-4.083a.583.583,0,0,0-.583.583v5.25a.583.583,0,0,0,.583.583h4.083a.583.583,0,0,0,.583-.583v-5.25a.583.583,0,0,0-.583-.583Zm-.583,5.25h-2.917v-4.083h2.917Zm0,0" transform="translate(-131.716 833.853)" fill="#6c5ce7"/>
    <path id="Path_6" data-name="Path 6" d="M589.273,384.242H585.19a.583.583,0,0,0-.583.583v8.166a.583.583,0,0,0,.583.583h4.083a.583.583,0,0,0,.583-.583v-8.166a.583.583,0,0,0-.583-.583Zm-.583,8.166h-2.917v-7h2.917Zm0,0" transform="translate(-134.441 835.092)" fill="#6c5ce7"/>
    <path id="Path_7" data-name="Path 7" d="M598.415,378.424h-4.084a.584.584,0,0,0-.583.583v12.25a.583.583,0,0,0,.583.583h4.084a.584.584,0,0,0,.583-.583v-12.25a.584.584,0,0,0-.583-.583Zm-.583,12.25h-2.917V379.591h2.917Zm0,0" transform="translate(-137.165 836.826)" fill="#6c5ce7"/>
    <path id="Path_8" data-name="Path 8" d="M607.557,366.79h-4.083a.583.583,0,0,0-.583.583V387.79a.583.583,0,0,0,.583.583h4.083a.583.583,0,0,0,.583-.583V367.373a.583.583,0,0,0-.583-.583Zm-.583,20.417h-2.917v-19.25h2.917Zm0,0" transform="translate(-139.89 840.293)" fill="#6c5ce7"/>
  </g>
</svg>
