<svg xmlns="http://www.w3.org/2000/svg" width="32.322" height="35" viewBox="0 0 32.322 35">
  <g id="Icon" transform="translate(-1237 -1196)">
    <path id="Path_14" data-name="Path 14" d="M973.505,294.514a5.181,5.181,0,0,0-3.317-1.483,2.087,2.087,0,0,0,.109-.668,2.053,2.053,0,0,0-2.034-2.066,5.006,5.006,0,0,0-1.767.521V288.73a.929.929,0,0,0-.928-.928h-1.744a5,5,0,0,0,.521-1.768,2.067,2.067,0,0,0-4.133,0,5,5,0,0,0,.521,1.768h-1.744a.929.929,0,0,0-.928.928v1.846a.929.929,0,0,0,1.219.883,2.154,2.154,0,0,1,.576-.14,1.044,1.044,0,0,1,0,2.087,2.129,2.129,0,0,1-.576-.139.929.929,0,0,0-1.219.883V296a.929.929,0,0,0,.928.928h1.744a5,5,0,0,0-.521,1.767,2.067,2.067,0,0,0,4.133,0,5,5,0,0,0-.521-1.767h1.744A.929.929,0,0,0,966.5,296v-2.087a5,5,0,0,0,1.767.521,2,2,0,0,0,1.243-.433c2.465.148,4.636.859,4.636,6.613a28.407,28.407,0,0,1-2.046,10.4.511.511,0,0,0,.271.671.5.5,0,0,0,.2.041.512.512,0,0,0,.471-.312,29.49,29.49,0,0,0,2.128-10.8c0-2.9-.543-4.9-1.661-6.1Zm-7.311-1.852a.511.511,0,0,0-.721.466V295.9h-2.429a.512.512,0,0,0-.466.722,6.988,6.988,0,0,1,.743,2.069,1.044,1.044,0,0,1-2.086,0,6.983,6.983,0,0,1,.743-2.069.512.512,0,0,0-.466-.722h-2.429v-1.623a2.712,2.712,0,0,0,.773.151,2.067,2.067,0,0,0,0-4.133,2.715,2.715,0,0,0-.773.151v-1.623h2.429a.511.511,0,0,0,.466-.722,6.983,6.983,0,0,1-.743-2.069,1.044,1.044,0,0,1,2.086,0,6.988,6.988,0,0,1-.743,2.069.511.511,0,0,0,.466.722h2.429V291.6a.511.511,0,0,0,.721.466,7.009,7.009,0,0,1,2.069-.744,1.044,1.044,0,0,1,0,2.087,6.986,6.986,0,0,1-2.069-.743Zm0,0" transform="translate(294.156 912)" fill="#e0474e"/>
    <path id="Path_15" data-name="Path 15" d="M965.217,316.746a.512.512,0,0,0-.706.157c-.629.989-1.621,2.169-2.769,2.169-2.082,0-4.345-4-5.38-9.518a.512.512,0,0,0-.5-.417h-6.749a.512.512,0,0,0-.5.417,28.814,28.814,0,0,1-.671,2.8l-2.307-.963a.929.929,0,0,0-1.214,1.215l1.707,4.088c-.683,1.13-1.706,2.374-2.9,2.374-1.387,0-2.861-1.731-4.043-4.748a28.558,28.558,0,0,1-1.837-9.882c0-2.885.552-4.743,1.686-5.682.97-.8,2.324-.963,4.194-.963,2.774,0,4.952.281,5.646,3.817a.511.511,0,0,0,.5.412h2.309a.511.511,0,1,0,0-1.023h-1.9a5.011,5.011,0,0,0-2.436-3.514,8.685,8.685,0,0,0-4.123-.715c-3.637,0-6.9.587-6.9,7.668A29.637,29.637,0,0,0,938.23,314.7c1.363,3.481,3.137,5.4,5,5.4,1.182,0,2.335-.776,3.373-2.255l1.846,4.422a.919.919,0,0,0,.825.57h.034a.917.917,0,0,0,.827-.512l.9-1.793,1.583,1.582a.916.916,0,0,0,1.3,0l1.221-1.221a.916.916,0,0,0,0-1.3l-1.583-1.582,1.794-.9a.927.927,0,0,0-.059-1.686l-6.394-2.67c.248-.834.465-1.7.645-2.6h5.907a23.843,23.843,0,0,0,2.29,6.648c1.193,2.15,2.582,3.286,4.014,3.286,1.277,0,2.533-.914,3.632-2.642a.511.511,0,0,0-.157-.706Zm-10.888,3.493-1.07,1.07-1.747-1.747.357-.713.713-.357Zm-1.884-2.822h0l-1.185.594a.511.511,0,0,0-.228.228l-1.722,3.437-3.861-9.248,9.247,3.861Zm0,0" transform="translate(300.677 908.168)" fill="#e0474e"/>
    <path id="Path_16" data-name="Path 16" d="M971.885,303.8a1.75,1.75,0,1,0,1.751,1.75,1.752,1.752,0,0,0-1.751-1.75Zm0,2.477a.727.727,0,1,1,.727-.727.728.728,0,0,1-.727.727Zm0,0" transform="translate(290.533 906.061)" fill="#e0474e"/>
    <path id="Path_17" data-name="Path 17" d="M971.885,311.923a1.75,1.75,0,1,0,1.751,1.751,1.753,1.753,0,0,0-1.751-1.751Zm0,2.478a.727.727,0,1,1,.727-.727.728.728,0,0,1-.727.727Zm0,0" transform="translate(290.533 903.623)" fill="#e0474e"/>
    <path id="Path_18" data-name="Path 18" d="M977.7,309.61a1.75,1.75,0,1,0-1.751,1.75,1.753,1.753,0,0,0,1.751-1.75Zm-2.478,0a.727.727,0,1,1,.727.727.728.728,0,0,1-.727-.727Zm0,0" transform="translate(289.314 904.842)" fill="#e0474e"/>
    <path id="Path_19" data-name="Path 19" d="M966.071,309.61a1.75,1.75,0,1,0,1.75-1.751,1.752,1.752,0,0,0-1.75,1.751Zm2.477,0a.727.727,0,1,1-.727-.727.728.728,0,0,1,.727.727Zm0,0" transform="translate(291.753 904.842)" fill="#e0474e"/>
    <path id="Path_20" data-name="Path 20" d="M947.439,308.891a.511.511,0,0,0,.4.942,1.58,1.58,0,0,0-.615-3.035H945.8v-1.422a1.58,1.58,0,0,0-3.161,0V306.8h-1.422a1.58,1.58,0,1,0,0,3.16h1.422v1.422a1.58,1.58,0,0,0,3.161,0v-1.934a.512.512,0,0,0-1.023,0v1.934a.557.557,0,1,1-1.114,0v-1.934a.512.512,0,0,0-.512-.511h-1.934a.557.557,0,1,1,0-1.114h1.934a.512.512,0,0,0,.512-.512v-1.933a.557.557,0,1,1,1.114,0v1.933a.511.511,0,0,0,.512.512h1.933a.557.557,0,0,1,.217,1.07Zm0,0" transform="translate(299.683 906.061)" fill="#e0474e"/>
  </g>
</svg>
