<svg xmlns="http://www.w3.org/2000/svg" width="28.374" height="28.374" viewBox="0 0 28.374 28.374">
  <g id="Group_40649" data-name="Group 40649" transform="translate(-1292.813 -2186)">
    <g id="Group_40644" data-name="Group 40644" transform="translate(1287.813 2181)">
      <g id="Group_40645" data-name="Group 40645">
        <g id="Group_40647" data-name="Group 40647" transform="translate(-1 1)">
          <g id="Group_40646" data-name="Group 40646" transform="translate(1)">
            <path id="Path_23501" data-name="Path 23501" d="M28.827,4H7.547A3.551,3.551,0,0,0,4,7.547V28.827a3.551,3.551,0,0,0,3.547,3.547H28.827a3.551,3.551,0,0,0,3.547-3.547V7.547A3.551,3.551,0,0,0,28.827,4Zm2.128,3.547v9.931H18.9V5.419h9.931a2.128,2.128,0,0,1,2.128,2.128ZM7.547,5.419h9.931V17.478H5.419V7.547A2.128,2.128,0,0,1,7.547,5.419ZM5.419,28.827V18.9H17.478V30.955H7.547a2.128,2.128,0,0,1-2.128-2.128Zm23.409,2.128H18.9V18.9H30.955v9.931a2.128,2.128,0,0,1-2.128,2.128Z" transform="translate(1)" fill="#4bbf4f"/>
          </g>
        </g>
      </g>
    </g>
    <path id="Path_23502" data-name="Path 23502" d="M10.709,13.9h1.773v1.773a.709.709,0,0,0,1.419,0V13.9h1.773a.709.709,0,0,0,0-1.419H13.9V10.709a.709.709,0,0,0-1.419,0v1.773H10.709a.709.709,0,0,0,0,1.419Z" transform="translate(1286.069 2178.882)" fill="#4bbf4f"/>
    <path id="Path_23503" data-name="Path 23503" d="M14.489,32.986l1.254-1.254a.709.709,0,1,0-1-1l-1.254,1.254-1.254-1.254a.709.709,0,1,0-1,1l1.254,1.254-1.254,1.254a.709.709,0,1,0,1,1l1.254-1.254,1.254,1.254a.709.709,0,1,0,1-1Z" transform="translate(1285.774 2172.92)" fill="#4bbf4f"/>
    <path id="Path_23504" data-name="Path 23504" d="M29.709,14.919h4.965a.709.709,0,0,0,0-1.419H29.709a.709.709,0,0,0,0,1.419Z" transform="translate(1280.547 2177.865)" fill="#4bbf4f"/>
    <path id="Path_23505" data-name="Path 23505" d="M34.675,31H29.709a.709.709,0,0,0,0,1.419h4.965a.709.709,0,0,0,0-1.419Z" transform="translate(1280.547 2172.778)" fill="#4bbf4f"/>
    <path id="Path_23506" data-name="Path 23506" d="M34.675,35H29.709a.709.709,0,0,0,0,1.419h4.965a.709.709,0,0,0,0-1.419Z" transform="translate(1280.547 2171.616)" fill="#4bbf4f"/>
  </g>
</svg>
