<svg id="_13691885491579517854" data-name="13691885491579517854" xmlns="http://www.w3.org/2000/svg" width="20" height="20" viewBox="0 0 20 20">
  <rect id="Rectangle_8656" data-name="Rectangle 8656" width="20" height="20" rx="10" fill="#f7df1e"/>
  <path id="Path_23507" data-name="Path 23507" d="M123.164,208.563A2.02,2.02,0,0,0,125,209.7c.781,0,1.289-.391,1.289-.937,0-.625-.508-.859-1.367-1.25l-.469-.2c-1.367-.586-2.266-1.289-2.266-2.812a2.51,2.51,0,0,1,2.734-2.5,2.717,2.717,0,0,1,2.656,1.523l-1.445.938a1.268,1.268,0,0,0-1.211-.82.823.823,0,0,0-.9.82c0,.547.352.781,1.172,1.133l.469.2c1.6.7,2.5,1.367,2.5,2.969,0,1.68-1.328,2.617-3.125,2.617a3.6,3.6,0,0,1-3.437-1.914Zm-6.641.156c.313.508.547.977,1.211.977.625,0,1.016-.234,1.016-1.172v-6.484h1.875v6.406a2.533,2.533,0,0,1-2.812,2.813A2.878,2.878,0,0,1,115,209.539Z" transform="translate(-110.508 -194.109)"/>
</svg>
