<svg xmlns="http://www.w3.org/2000/svg" width="24.058" height="24.058" viewBox="0 0 24.058 24.058">
  <g id="_18442644931553750210" data-name="18442644931553750210" transform="translate(-51.167 -50.873)">
    <g id="Group_40608" data-name="Group 40608" transform="translate(1.492 0.097)">
      <g id="Group_40607" data-name="Group 40607" transform="translate(-1)">
        <path id="Path_23517" data-name="Path 23517" d="M74.726,62.8c-.551,3.5-1.623,4.528-3.522,6.882-1.9,1.995-4.63,5.325-8.5,5.139-3.5-.551-4.528-1.623-6.882-3.522-1.995-1.9-5.325-4.63-5.139-8.5.551-3.5,1.623-4.528,3.522-6.882,1.9-1.995,4.63-5.325,8.5-5.139,3.5.551,4.528,1.623,6.882,3.522C71.581,56.2,74.912,58.935,74.726,62.8Z" fill="#3765af"/>
      </g>
    </g>
    <path id="Path_23518" data-name="Path 23518" d="M155.333,151.759a1.047,1.047,0,0,1-.533-.144l-1.689-1c-.252-.144-.132-.192-.048-.222a3.556,3.556,0,0,0,.767-.347.12.12,0,0,1,.126.012l1.3.773a.178.178,0,0,0,.156,0l5.061-2.923a.158.158,0,0,0,.078-.138v-5.84a.158.158,0,0,0-.078-.138l-5.061-2.917a.146.146,0,0,0-.156,0l-5.055,2.917a.166.166,0,0,0-.078.138v5.84a.166.166,0,0,0,.078.138l1.384.8c.755.377,1.21-.066,1.21-.509v-5.768a.143.143,0,0,1,.15-.144h.641a.146.146,0,0,1,.144.144V148.2a1.4,1.4,0,0,1-1.5,1.581,2.174,2.174,0,0,1-1.168-.317l-1.33-.767a1.071,1.071,0,0,1-.533-.922v-5.84a1.071,1.071,0,0,1,.533-.922l5.061-2.923a1.122,1.122,0,0,1,1.066,0l5.061,2.923a1.071,1.071,0,0,1,.533.922v5.84a1.071,1.071,0,0,1-.533.922l-5.061,2.923A1.07,1.07,0,0,1,155.333,151.759Z" transform="translate(-92.623 -81.953)" fill="#fff"/>
    <path id="Path_23519" data-name="Path 23519" d="M235.677,213.306c-2.216,0-2.677-1.018-2.677-1.869a.142.142,0,0,1,.144-.144h.653a.148.148,0,0,1,.144.126c.1.665.4,1,1.731,1,1.066,0,1.521-.24,1.521-.809,0-.323-.126-.569-1.785-.731-1.384-.138-2.24-.443-2.24-1.551,0-1.018.863-1.629,2.306-1.629,1.623,0,2.426.563,2.528,1.767a.154.154,0,0,1-.036.114.15.15,0,0,1-.108.048H237.2a.153.153,0,0,1-.144-.114c-.156-.7-.539-.922-1.581-.922-1.162,0-1.3.407-1.3.707,0,.365.162.473,1.731.683s2.294.5,2.294,1.587S237.277,213.306,235.677,213.306Z" transform="translate(-171.404 -147.525)" fill="#fff"/>
  </g>
</svg>
