<svg xmlns="http://www.w3.org/2000/svg" width="17.412" height="15.588" viewBox="0 0 17.412 15.588">
  <path id="Path_23508" data-name="Path 23508" d="M83.962,108.85c2.2-3.958,2.67-7.744,1.053-8.455s-4.711,1.92-6.91,5.878-2.671,7.744-1.054,8.457,4.71-1.918,6.91-5.876Zm-5.51,0c2.2,3.958,5.293,6.588,6.91,5.876s1.145-4.5-1.055-8.457-5.293-6.59-6.91-5.878-1.146,4.5,1.053,8.455Zm2.756,1.589c4.532,0,8.2-1.426,8.2-3.184s-3.673-3.183-8.2-3.183S73,105.5,73,107.258s3.673,3.184,8.2,3.184Z" transform="translate(-72.5 -99.768)" fill="none" stroke="#61dafb" stroke-width="1"/>
</svg>
