<svg id="_19198039191551953708" data-name="19198039191551953708" xmlns="http://www.w3.org/2000/svg" width="21" height="21" viewBox="0 0 21 21">
  <path id="Path_23514" data-name="Path 23514" d="M0-245.5V-235H21v-21H0Z" transform="translate(0 256)" fill="#007acc"/>
  <path id="Path_23515" data-name="Path 23515" d="M7.393,8.627l.007-.86H4.667V0H2.733V7.767H0V8.61a8.265,8.265,0,0,0,.023.867c.01.013,1.673.02,3.69.017l3.67-.01Z" transform="translate(12.037 19.196) rotate(180)" fill="#fff"/>
  <path id="Path_23516" data-name="Path 23516" d="M157.616-235.239a2.614,2.614,0,0,1,1.313.757,3.459,3.459,0,0,1,.5.673c.007.027-.907.64-1.46.983-.02.013-.1-.073-.19-.207a1.19,1.19,0,0,0-.987-.593c-.637-.043-1.047.29-1.043.847a.77.77,0,0,0,.09.393c.14.29.4.463,1.217.817a5.233,5.233,0,0,1,2.547,1.68,3.047,3.047,0,0,1,.243,2.56,2.815,2.815,0,0,1-2.323,1.663,6.436,6.436,0,0,1-1.6-.017,3.859,3.859,0,0,1-2.137-1.113,3.709,3.709,0,0,1-.547-.81,1.563,1.563,0,0,1,.193-.123c.093-.053.447-.257.78-.45l.6-.35.127.187a2.819,2.819,0,0,0,.8.763,1.95,1.95,0,0,0,2.043-.1.773.773,0,0,0,.273-.63.769.769,0,0,0-.157-.533c-.163-.233-.5-.43-1.443-.84a5.2,5.2,0,0,1-1.977-1.217,2.769,2.769,0,0,1-.577-1.05,4.2,4.2,0,0,1-.037-1.34,2.559,2.559,0,0,1,2.153-1.993A5.32,5.32,0,0,1,157.616-235.239Z" transform="translate(-140.671 244.928)" fill="#fff"/>
</svg>
