<svg xmlns="http://www.w3.org/2000/svg" width="60" height="60" viewBox="0 0 60 60">
  <g id="Icon_-Twitter_" data-name="Icon -Twitter " transform="translate(-106 16)">
    <rect id="Rectangle_25" data-name="Rectangle 25" width="60" height="60" rx="30" transform="translate(106 -16)" fill="#d6381e"/>
    <path id="Icon_awesome-google" data-name="Icon awesome-google" d="M21.645,11.82c0,6.276-4.3,10.743-10.645,10.743a11,11,0,1,1,0-22,10.578,10.578,0,0,1,7.376,2.879L15.382,6.32c-3.917-3.779-11.2-.94-11.2,5.243A6.89,6.89,0,0,0,11,18.508a5.948,5.948,0,0,0,6.245-4.742H11V9.983H21.472A9.643,9.643,0,0,1,21.645,11.82Z" transform="translate(125.177 2.438)" fill="#fff"/>
  </g>
</svg>
