<svg xmlns="http://www.w3.org/2000/svg" width="55.057" height="47.345" viewBox="0 0 55.057 47.345">
  <g id="Group_48" data-name="Group 48" transform="translate(-694.5 -747.5)">
    <path id="Rectangle-53" d="M0,0H38.56L28.92,21.208H3.856Z" transform="translate(709.497 756.713)" fill="none" stroke="#0f0d0d" stroke-linecap="round" stroke-linejoin="round" stroke-width="3"/>
    <path id="Path-168" d="M6.17,0H2.892A2.965,2.965,0,0,0,0,2.892,2.965,2.965,0,0,0,2.892,5.784H38.946" transform="translate(707.185 777.92)" fill="none" stroke="#0f0d0d" stroke-linecap="round" stroke-linejoin="round" stroke-width="3"/>
    <path id="Oval-29" d="M7.712,3.856A3.856,3.856,0,1,1,3.856,0,3.856,3.856,0,0,1,7.712,3.856Z" transform="translate(696 749)" fill="none" stroke="#0f0d0d" stroke-linecap="round" stroke-linejoin="round" stroke-width="3"/>
    <path id="Oval-29-Copy" d="M7.712,3.856A3.856,3.856,0,1,1,3.856,0,3.856,3.856,0,0,1,7.712,3.856Z" transform="translate(703.714 785.633)" fill="none" stroke="#0f0d0d" stroke-linecap="round" stroke-linejoin="round" stroke-width="3"/>
    <path id="Oval-29-Copy-2" d="M7.712,3.856A3.856,3.856,0,1,1,3.856,0,3.856,3.856,0,0,1,7.712,3.856Z" transform="translate(738.416 785.633)" fill="none" stroke="#0f0d0d" stroke-linecap="round" stroke-linejoin="round" stroke-width="3"/>
    <path id="Path-169" d="M0,0C3.856,0,5.784,1.35,5.784,3.856" transform="translate(703.714 752.857)" fill="none" stroke="#0f0d0d" stroke-linecap="round" stroke-linejoin="round" stroke-width="3"/>
    <path id="Path-170" d="M0,0H32.776" transform="translate(711.422 764.425)" fill="none" stroke="#0f0d0d" stroke-linecap="round" stroke-linejoin="round" stroke-width="3"/>
  </g>
</svg>
