<svg id="Group_38530" data-name="Group 38530" xmlns="http://www.w3.org/2000/svg" width="38.827" height="28.775" viewBox="0 0 38.827 28.775">
  <path id="Path_23475" data-name="Path 23475" d="M47.489,28.386a2.894,2.894,0,0,0-2.9,2.9,2.857,2.857,0,0,0,.273,1.2L36.056,37.9,32.823,26.587a2.856,2.856,0,0,0,1.043-2.181,2.9,2.9,0,1,0-5.791,0,2.855,2.855,0,0,0,1.044,2.181L25.885,37.9l-8.809-5.424a2.859,2.859,0,0,0,.274-1.2,2.9,2.9,0,1,0-2.9,2.9c.077,0,.141-.038.216-.044l5.377,13.185H41.895l5.376-13.185c.075.007.139.044.217.044a2.9,2.9,0,0,0,0-5.792ZM12.241,32.377a2.348,2.348,0,0,1,.424-2.613A4.859,4.859,0,0,0,12.241,32.377Zm8.5,13.673,1.192-2.064,1.192,2.064Zm4.521,0,1.192-2.064,1.192,2.064Zm3.5-20.548a2.348,2.348,0,0,1,.424-2.613A4.854,4.854,0,0,0,28.759,25.5Zm1.02,20.548,1.192-2.064,1.192,2.064Zm4.521,0,1.191-2.064,1.192,2.064Zm4.52,0,1.192-2.064L41.2,46.049Zm6.444-13.814-.027.016a2.36,2.36,0,0,1,.464-2.488A4.7,4.7,0,0,0,45.264,32.236Z" transform="translate(-11.557 -21.51)" fill="#ffc663"/>
  <rect id="Rectangle_8626" data-name="Rectangle 8626" width="23.548" height="2.45" transform="translate(7.64 26.325)" fill="#ffc663"/>
</svg>
