<svg xmlns="http://www.w3.org/2000/svg" width="27.957" height="27.957" viewBox="0 0 27.957 27.957">
  <g id="Group_38497" data-name="Group 38497" transform="translate(-1697.857 -258.482)" opacity="0.55">
    <path id="Icon_open-share-boxed" data-name="Icon open-share-boxed" d="M1.113,0A1.121,1.121,0,0,0,0,1.113V9.276a1.121,1.121,0,0,0,1.113,1.113H7.792A1.121,1.121,0,0,0,8.905,9.276V7.421H7.421V8.905H1.484V1.484H4.453V0ZM8.905,0V1.484A5.9,5.9,0,0,0,3.057,6.723,2.948,2.948,0,0,1,5.937,4.453H8.905V5.937l2.968-2.968Z" transform="translate(1706.628 267.266)" fill="#0f0d0d"/>
    <path id="Oval_65_" d="M25.957,12.979A12.979,12.979,0,1,1,12.979,0,12.979,12.979,0,0,1,25.957,12.979Z" transform="translate(1724.814 285.439) rotate(180)" fill="none" stroke="#0f0d0d" stroke-width="2"/>
  </g>
</svg>
