<svg xmlns="http://www.w3.org/2000/svg" width="17.995" height="18" viewBox="0 0 17.995 18">
  <path id="Icon_ionic-ios-settings" data-name="Icon ionic-ios-settings" d="M21.01,13.5a2.316,2.316,0,0,1,1.486-2.16,9.178,9.178,0,0,0-1.111-2.676,2.347,2.347,0,0,1-.942.2,2.311,2.311,0,0,1-2.114-3.252A9.151,9.151,0,0,0,15.658,4.5a2.314,2.314,0,0,1-4.321,0A9.179,9.179,0,0,0,8.661,5.611,2.311,2.311,0,0,1,6.548,8.863a2.27,2.27,0,0,1-.942-.2A9.381,9.381,0,0,0,4.5,11.342a2.315,2.315,0,0,1,0,4.321,9.179,9.179,0,0,0,1.111,2.676,2.311,2.311,0,0,1,3.051,3.051A9.232,9.232,0,0,0,11.342,22.5a2.309,2.309,0,0,1,4.311,0,9.178,9.178,0,0,0,2.676-1.111,2.314,2.314,0,0,1,3.051-3.051,9.232,9.232,0,0,0,1.111-2.676A2.327,2.327,0,0,1,21.01,13.5Zm-7.47,3.744a3.749,3.749,0,1,1,3.749-3.749A3.748,3.748,0,0,1,13.54,17.242Z" transform="translate(-4.5 -4.5)" fill="#f5f5fb"/>
</svg>
