<svg xmlns="http://www.w3.org/2000/svg" width="16.444" height="16.239" viewBox="0 0 16.444 16.239">
  <g id="calendar" transform="translate(-1.645 -1.85)">
    <path id="Union" d="M4.111,0a.617.617,0,0,1,.617.617v.822h6.989V.617a.617.617,0,1,1,1.233,0v.822h1.028a2.467,2.467,0,0,1,2.467,2.467v9.867a2.467,2.467,0,0,1-2.467,2.467H2.467A2.467,2.467,0,0,1,0,13.772V3.906A2.467,2.467,0,0,1,2.467,1.439H3.494V.617A.617.617,0,0,1,4.111,0Zm7.606,2.672V3.906a.617.617,0,1,0,1.233,0V2.672h1.028a1.233,1.233,0,0,1,1.233,1.233V6.578H1.233V3.906A1.233,1.233,0,0,1,2.467,2.672H3.494V3.906a.617.617,0,1,0,1.233,0V2.672ZM1.233,7.811v5.961a1.233,1.233,0,0,0,1.233,1.233H13.978a1.233,1.233,0,0,0,1.233-1.233V7.811Z" transform="translate(1.645 1.85)" fill="#5531fb"/>
  </g>
</svg>
