<svg xmlns="http://www.w3.org/2000/svg" width="16.033" height="16.033" viewBox="0 0 16.033 16.033">
  <g id="crosshairs" transform="translate(-1.85 -1.85)">
    <path id="Union" d="M8.017,0a.617.617,0,0,1,.617.617v.851A6.58,6.58,0,0,1,14.566,7.4h.851a.617.617,0,0,1,0,1.233h-.851a6.58,6.58,0,0,1-5.933,5.933v.851a.617.617,0,0,1-1.233,0v-.851A6.58,6.58,0,0,1,1.467,8.633H.617a.617.617,0,0,1,0-1.233h.851A6.58,6.58,0,0,1,7.4,1.467V.617A.617.617,0,0,1,8.017,0Zm0,13.361A5.344,5.344,0,1,0,2.672,8.017,5.344,5.344,0,0,0,8.017,13.361Z" transform="translate(1.85 1.85)" fill="#fc6b21"/>
    <path id="Ellipse_202_Stroke_" data-name="Ellipse 202 (Stroke)" d="M2.467,3.7A1.233,1.233,0,1,0,1.233,2.467,1.233,1.233,0,0,0,2.467,3.7Zm0,1.233A2.467,2.467,0,1,0,0,2.467,2.467,2.467,0,0,0,2.467,4.933Z" transform="translate(7.4 7.4)" fill="#fc6b21"/>
  </g>
</svg>
