<svg xmlns="http://www.w3.org/2000/svg" width="16.617" height="18.089" viewBox="0 0 16.617 18.089">
  <g id="settings" transform="translate(-1.559 -0.822)">
    <path id="Oval_Stroke_" data-name="Oval (Stroke)" d="M3.289,5.344A2.056,2.056,0,1,0,1.233,3.289,2.056,2.056,0,0,0,3.289,5.344ZM6.578,3.289A3.289,3.289,0,1,1,3.289,0,3.289,3.289,0,0,1,6.578,3.289Z" transform="translate(6.578 6.578)" fill="#1fb9fc"/>
    <path id="Union_Stroke_" data-name="Union (Stroke)" d="M7.408,1.514l-.319.956A3.13,3.13,0,0,1,5.613,4.191q-.079.044-.156.09a3.128,3.128,0,0,1-2.231.42l-.988-.2a.411.411,0,0,0-.438.2l-.511.884a.411.411,0,0,0,.048.478l.67.756A3.127,3.127,0,0,1,2.76,8.953q0,.092,0,.184a3.127,3.127,0,0,1-.753,2.137l-.67.756a.411.411,0,0,0-.048.478l.511.884a.411.411,0,0,0,.438.2l.988-.2a3.128,3.128,0,0,1,2.231.42q.077.046.156.09a3.13,3.13,0,0,1,1.476,1.721l.319.956a.411.411,0,0,0,.39.281H8.819a.411.411,0,0,0,.39-.281l.319-.956A3.13,3.13,0,0,1,11,13.9q.079-.044.156-.09a3.128,3.128,0,0,1,2.231-.42l.988.2a.411.411,0,0,0,.438-.2l.511-.884a.411.411,0,0,0-.048-.478l-.67-.756a3.127,3.127,0,0,1-.753-2.137q0-.092,0-.184a3.127,3.127,0,0,1,.753-2.137l.67-.756a.411.411,0,0,0,.048-.478L14.818,4.7a.411.411,0,0,0-.438-.2l-.988.2a3.128,3.128,0,0,1-2.231-.42q-.077-.046-.156-.09A3.13,3.13,0,0,1,9.528,2.47l-.319-.956a.411.411,0,0,0-.39-.281H7.8A.411.411,0,0,0,7.408,1.514ZM5.919,2.08a1.9,1.9,0,0,1-.906,1.033q-.1.054-.191.111a1.9,1.9,0,0,1-1.349.269l-.988-.2A1.644,1.644,0,0,0,.731,4.08L.22,4.964A1.644,1.644,0,0,0,.414,6.878l.67.756a1.9,1.9,0,0,1,.442,1.3q0,.111,0,.223a1.9,1.9,0,0,1-.442,1.3l-.67.756A1.644,1.644,0,0,0,.22,13.124l.511.884a1.644,1.644,0,0,0,1.754.789l.988-.2a1.9,1.9,0,0,1,1.349.269q.095.057.191.111a1.9,1.9,0,0,1,.906,1.033l.319.956A1.644,1.644,0,0,0,7.8,18.089H8.819a1.644,1.644,0,0,0,1.56-1.124l.319-.956a1.9,1.9,0,0,1,.906-1.033q.1-.054.191-.111a1.9,1.9,0,0,1,1.349-.269l.988.2a1.644,1.644,0,0,0,1.754-.789l.511-.884a1.644,1.644,0,0,0-.194-1.913l-.67-.756a1.9,1.9,0,0,1-.442-1.3q0-.111,0-.223a1.9,1.9,0,0,1,.442-1.3l.67-.756A1.644,1.644,0,0,0,16.4,4.964l-.511-.884a1.644,1.644,0,0,0-1.754-.789l-.988.2a1.9,1.9,0,0,1-1.349-.269q-.095-.057-.191-.111A1.9,1.9,0,0,1,10.7,2.08l-.319-.956A1.644,1.644,0,0,0,8.819,0H7.8a1.644,1.644,0,0,0-1.56,1.124Z" transform="translate(1.559 0.822)" fill="#1fb9fc"/>
  </g>
</svg>
